<?xml version="1.0" encoding="UTF-8"?>
<svg id="Layer_2" xmlns="http://www.w3.org/2000/svg" viewBox="0 0 111.34 96.15">
  <defs>
    <style>
      .cls-1 {
        fill: #c0c2c4;
      }

      .cls-2, .cls-3, .cls-4 {
        fill: #6ba45f;
      }

      .cls-2, .cls-5, .cls-6, .cls-7 {
        stroke-miterlimit: 10;
      }

      .cls-2, .cls-6 {
        stroke: #434740;
        stroke-width: .5px;
      }

      .cls-3, .cls-8 {
        font-family: IBMPlexMono, 'IBM Plex Mono';
        font-size: 7.23px;
        letter-spacing: 0em;
      }

      .cls-5 {
        fill: #fff;
      }

      .cls-5, .cls-7 {
        stroke: #d0d1d3;
        stroke-width: .75px;
      }

      .cls-9 {
        fill: #eaab99;
      }

      .cls-10, .cls-6 {
        fill: #f1f2f2;
      }

      .cls-11 {
        fill: #808285;
      }

      .cls-12 {
        fill: #f69782;
      }

      .cls-13 {
        fill: #adadad;
      }

      .cls-14 {
        fill: #f0cbab;
      }

      .cls-15 {
        stroke: #d1d3d4;
        stroke-linecap: round;
        stroke-linejoin: round;
        stroke-width: 3px;
      }

      .cls-15, .cls-7 {
        fill: none;
      }

      .cls-16 {
        fill: #f8f8f9;
      }

      .cls-17 {
        fill: #d1d3d4;
      }

      .cls-18 {
        fill: #373737;
      }

      .cls-19 {
        fill: #e6e7e8;
      }

      .cls-20 {
        fill: #fff9f6;
      }

      .cls-8 {
        fill: #231f20;
      }

      .cls-21 {
        fill: #434740;
      }

      .cls-22 {
        fill: #fed9ba;
      }
    </style>
  </defs>
  <g id="Layer_1-2" data-name="Layer_1">
    <g>
      <g>
        <path class="cls-21" d="M94.22,25.98h3.37v17.83c0,.84-.68,1.52-1.52,1.52h-.32c-.84,0-1.52-.68-1.52-1.52v-17.83h0Z" transform="translate(60.84 -60.47) rotate(49.57)"/>
        <polygon class="cls-17" points="107.78 29.54 104.34 30.63 102.17 28.09 103.81 24.83 110.6 22.92 110.91 22.84 110.79 23.11 107.78 29.54"/>
        <circle class="cls-21" cx="105.95" cy="27.07" r=".49"/>
        <path class="cls-21" d="M110.79,23.11l-4.65,3.96c-.06.05-.15.05-.2,0s-.04-.15.02-.2l4.64-3.95.31-.08-.12.27Z"/>
        <path class="cls-13" d="M104.25,30.92l-2.38-2.79,1.77-3.51.11-.03,7.59-2.11-.31.73-3.07,6.54-3.71,1.17ZM102.47,28.06l1.95,2.29,3.18-1.01,2.87-6.13-6.48,1.83-1.52,3.02Z"/>
      </g>
      <polyline class="cls-15" points="6.22 31.3 1.5 40.4 9.5 44.77"/>
      <polyline class="cls-15" points="25.5 41.48 30.22 32.38 22.22 28.01"/>
      <line class="cls-15" x1="15.45" y1="29.13" x2="13.6" y2="44.77"/>
      <text class="cls-8" transform="translate(8.62 61.84) rotate(-15.7)"><tspan x="0" y="0">stack</tspan></text>
      <text class="cls-3" transform="translate(30.17 8.22) rotate(-15.7)"><tspan x="0" y="0">0</tspan><tspan x="0" y="7">1</tspan><tspan x="0" y="14">0</tspan><tspan x="0" y="21">1</tspan></text>
      <g>
        <rect class="cls-7" x="55.59" y="3.93" width="32.72" height="19.39" transform="translate(2.83 -10.55) rotate(8.55)"/>
        <rect class="cls-5" x="56.18" y=".57" width="2.07" height="2.07" transform="translate(.87 -8.49) rotate(8.55)"/>
        <rect class="cls-5" x="53.29" y="19.74" width="2.07" height="2.07" transform="translate(3.69 -7.85) rotate(8.55)"/>
        <rect class="cls-5" x="85.65" y="24.61" width="2.07" height="2.07" transform="translate(4.78 -12.6) rotate(8.55)"/>
        <rect class="cls-5" x="88.53" y="5.43" width="2.07" height="2.07" transform="translate(1.96 -13.24) rotate(8.55)"/>
        <rect class="cls-5" x="72.35" y="3" width="2.07" height="2.07" transform="translate(1.42 -10.87) rotate(8.55)"/>
        <rect class="cls-5" x="69.47" y="22.18" width="2.07" height="2.07" transform="translate(4.23 -10.22) rotate(8.55)"/>
      </g>
      <path class="cls-2" d="M91.9,50.4h8.62v8.89c0,.69-.56,1.25-1.25,1.25h-6.12c-.69,0-1.25-.56-1.25-1.25v-8.89h0Z" transform="translate(22.38 -27.49) rotate(18.36)"/>
      <path class="cls-6" d="M96.14,46.97h4.54c1.13,0,2.04.91,2.04,2.04v1.74h-8.62v-1.74c0-1.13.91-2.04,2.04-2.04Z" transform="translate(20.41 -28.51) rotate(18.36)"/>
      <g>
        <g>
          <path class="cls-18" d="M46.48,44.14s-11.28,14.28-6.87,29.97c4.42,15.69.67,6.32,1.76,13.04.83,5.12,36.15,6.72,38.15,0,2-6.72.69-14.55,1.16-24.38.47-9.83-4.91-24.85-16.83-23.34-14.07,1.78-17.37,4.71-17.37,4.71Z"/>
          <path class="cls-21" d="M61.84,91.87c-1.79,0-3.61-.06-5.41-.17-7.12-.46-14.88-1.88-15.31-4.5-.42-2.58-.17-2.95.27-3.21.33-.2.42-1.1-2.03-9.8-4.4-15.63,6.8-30.05,6.91-30.2l.03-.03c.14-.12,3.51-3,17.5-4.77,3.76-.48,7.11.61,9.94,3.24,5.36,4.96,7.47,14.03,7.17,20.36-.17,3.49-.11,6.68-.06,9.76.1,5.53.19,10.31-1.11,14.67-.95,3.2-9.04,4.64-17.91,4.64ZM46.66,44.32c-.47.61-11.06,14.61-6.81,29.73,2.75,9.78,2.4,10,1.8,10.36-.17.1-.43.26-.04,2.71.3,1.86,6.41,3.54,14.84,4.08,10.27.65,21.76-.56,22.81-4.11,1.28-4.29,1.19-9.03,1.09-14.52-.06-3.09-.11-6.29.06-9.8.3-6.22-1.77-15.12-7.01-19.97-2.72-2.52-5.94-3.57-9.54-3.11-13.31,1.68-16.96,4.42-17.22,4.63Z"/>
        </g>
        <path class="cls-22" d="M74.27,59.25v4.62c0,8.38-7.07,10.25-14.12,10.18-4.3-.04-9.06-.71-12.11-3.13.15.11-3.57-4.81-1.75-1.88-.91-1.35-1.44-3.05-1.44-5.17v-4.62c0-8.37,5.75-15.23,12.77-15.23h3.87c7.03,0,12.78,6.86,12.78,15.23Z"/>
        <path class="cls-14" d="M73.84,59.2s1.07,5.6-.51,9.39c-.82,1.98-2.56,3.12-5.14,3.43,0,0,2.34-.41,3.61-3.81.89-2.39,1.27-9.25,1.23-11.43-.01-.91.81,2.41.81,2.41Z"/>
        <ellipse class="cls-12" cx="71.89" cy="63.99" rx="2.37" ry="1.21"/>
        <path class="cls-9" d="M45.22,66.86s.7-2.13,2.07-5.85c1.74-4.72,1.59-10.19,5.34-10.37,0,0,.37,4.67,3.64,4.83,0,0-.32-5.17,1.27-6.31,2.51-1.8,8.72-.86,6.93,4.68,0,0,4.79-1.16,3.19-3.98,0,0,1.08,1.18,2.8,4.44.93,1.76,3.29,4.71,3.42,4.66,0,0,6.1-3.91,3.4-9.7-3.45-7.4-16.63-9.68-23.3-8.6-6.67,1.08-18.7,7.58-8.76,26.2Z"/>
        <path class="cls-21" d="M57.87,31.8s-.06,0-.09,0c-.27-.05-.45-.31-.4-.58.07-.38.2-1,.41-1.59-.23-.28-.41-.66-.47-1.16-.09-.78.2-1.23.47-1.48.8-.74,2.24-.49,2.4-.46.27.05.45.31.4.58-.05.27-.32.45-.58.4-.28-.05-1.17-.13-1.53.21-.05.05-.21.19-.15.63,0,.06.02.12.03.17.17-.22.36-.39.57-.47.18-.07.55-.13.94.2.7.59.51,1.16.43,1.33-.22.48-.82.74-1.46.64-.06,0-.11-.02-.17-.04-.12.37-.23.8-.3,1.21-.04.24-.25.41-.49.41ZM59.03,29.23c.16.02.29-.03.33-.07-.02-.01-.06-.07-.16-.16-.05.02-.11.1-.17.23Z"/>
        <path class="cls-18" d="M61.49,43.89h-3.87c-7.18,0-13.02,6.95-13.02,15.48v4.62c0,6.81,5.23,10.32,15.55,10.43h.38c5.27,0,9.1-1.15,11.39-3.41,1.73-1.71,2.6-4.07,2.6-7.02v-4.62c0-8.53-5.84-15.48-13.03-15.48ZM46.34,69.24s-.04-.05-.05-.08c-1.82-2.93-1.3-6.87-1.3-6.87,0,0,.04-.18.11-.44v-2.48c0-8.26,5.62-14.98,12.52-14.98h3.87c6.91,0,12.53,6.72,12.53,14.98v4.62c0,2.81-.83,5.05-2.45,6.66-2.22,2.2-5.98,3.27-11.2,3.27h-.22c-4.77-.06-8.42-.84-10.92-2.37h-.01c-.26-.04-.51-.1-.71-.21-.16-.09-.32-.19-.47-.3-.65-.51-1.22-1.11-1.7-1.8Z"/>
        <path class="cls-20" d="M50.51,71.7c-.41-.09-.87-.1-1.28-.15h-.01c-.26-.04-.51-.1-.71-.21-.16-.09-.32-.19-.47-.3-.65-.51-1.22-1.11-1.7-1.8-.02-.02-.04-.05-.05-.08-1.82-2.93-1.3-6.87-1.3-6.87,0,0,.04-.18.11-.44.22-.87.71-2.67.7-1.97-.04,2.18.32,5.64,1.21,8.04,1.1,2.98,3.03,3.65,3.5,3.78Z"/>
        <path class="cls-22" d="M47.81,72.86s-9.59-10.2-14.97-9.49c-4.67.62-6.44,6.55-4.76,13.23,1.68,6.68,6,7.37,7.65,6.61,3.27-1.51-.2-4.76-1.1-7.94-.62-2.18-.23-6.2,5.37.21"/>
        <path class="cls-22" d="M71.89,72.17s7.19-9.83,12.59-9.37c4.7.4,8.65,5.4,7.29,12.16-1.36,6.76-1.27,10.05-5.8,8.81-4.53-1.24-1.69-8.03-1.69-8.03,0,0,.81-7.99-4.47-1.32"/>
        <g>
          <path class="cls-12" d="M58.54,67.25c-.91,1.01-2.1.93-2.69.62-.69-.37-1.19-1.25-.07-1.99,1.33-.88,1-.34,2.18.11,1.35.52,1.81-.1.58,1.27Z"/>
          <path class="cls-21" d="M56.77,68.32c-.41,0-.78-.1-1.03-.24-.51-.27-.84-.72-.86-1.18-.02-.32.1-.8.77-1.24.96-.64,1.2-.62,1.72-.28.16.11.36.24.69.37.39.15.69.2.92.23.25.04.45.07.52.27.08.23-.06.38-.58.96l-.18.2c-.61.68-1.34.91-1.96.91ZM56.75,65.66c-.16,0-.37.12-.83.42-.26.17-.57.45-.55.8.01.28.25.58.6.77.51.27,1.57.34,2.39-.56l.18-.2c.14-.16.27-.3.36-.41,0,0,0,0,0,0-.23-.04-.58-.09-1.02-.26-.38-.15-.62-.3-.79-.42-.13-.09-.22-.14-.33-.14Z"/>
        </g>
        <path class="cls-21" d="M60.03,66.56c-2.35,0-3.7-1.28-3.76-1.33-.1-.1-.1-.25,0-.35.1-.1.25-.1.35,0,.01.01,1.27,1.19,3.41,1.19,1.81,0,2.66-.34,3.63-1.44.09-.1.25-.11.35-.02.1.09.11.25.02.35-1.2,1.36-2.29,1.61-4,1.61Z"/>
        <ellipse class="cls-12" cx="47.78" cy="63.99" rx="2.37" ry="1.21"/>
        <path class="cls-18" d="M50.57,57.15l5.42,1.7s-.32,2.8-3.45,2.34c-3.3-.49-1.98-4.04-1.98-4.04Z"/>
        <path class="cls-18" d="M56.23,59.03c-.45,0-1.49-.13-3.58-.96-2.68-1.07-3.73-.69-3.74-.68-.13.05-.27-.01-.32-.14-.05-.13,0-.27.13-.32.05-.02,1.19-.48,4.11.68,2.69,1.07,3.55.92,3.55.91.13-.02.27.06.3.19s-.05.26-.18.3c-.03,0-.11.02-.27.02Z"/>
        <path class="cls-18" d="M69.27,56.91l-5.42,1.7s.32,2.8,3.45,2.34c3.3-.49,1.98-4.04,1.98-4.04Z"/>
        <path class="cls-10" d="M53.39,58.29l1.78.56s-.11.92-1.13.77c-1.08-.16-.65-1.32-.65-1.32Z"/>
        <path class="cls-10" d="M66.42,58.1l-1.78.56s.11.92,1.13.77c1.08-.16.65-1.32.65-1.32Z"/>
        <path class="cls-18" d="M45.25,68.59s.32-3.51,1.42-8.26c1.14-4.9,3.13-11.05,6.88-11.23,0,0-.43,5.49,2.84,5.64,0,0-.21-5.63,1.37-6.77,2.51-1.8,8.27-.14,6.48,5.41,0,0,4.06-1.82,2.88-5.14,0,0,2.17,2.53,4.19,5.77,1.12,1.78,2.19,4.35,2.7,6.42.06.25.29-.24.35,0,.65,2.34.71,3.18.44,5.47,0,0,6.26-9.09,2.7-17.83-3.09-7.56-18.22-9.83-24.89-8.75-6.67,1.08-17.32,10.65-7.37,29.27Z"/>
        <path class="cls-18" d="M63.6,58.79c-.16,0-.24-.02-.27-.02-.13-.03-.22-.17-.18-.3.03-.13.17-.22.3-.18,0,0,.86.15,3.55-.92,2.92-1.16,4.07-.7,4.11-.68.13.05.19.2.13.33-.05.12-.2.19-.32.13-.02,0-1.07-.38-3.74.68-2.09.83-3.14.96-3.59.96Z"/>
        <g>
          <polygon class="cls-11" points="77.57 95.9 42.5 95.9 39.04 79.96 81.25 79.96 77.57 95.9"/>
          <path class="cls-21" d="M77.57,96.15h-35.08c-.12,0-.22-.08-.24-.2l-3.45-15.94c-.02-.07,0-.15.05-.21.05-.06.12-.09.19-.09h42.2c.08,0,.15.04.2.09.05.06.06.14.05.21l-3.67,15.94c-.03.11-.13.19-.24.19ZM42.7,95.65h34.68l3.56-15.44h-41.58l3.35,15.44Z"/>
        </g>
        <g>
          <path class="cls-4" d="M59.72,30.86c18.18,0,22.01,14.43,19.53,16.54-4.97,4.22-8-4.24-19.3-4.24s-14.88,10.68-19.2,5.41c-2.34-2.86-1.11-17.7,18.97-17.71Z"/>
          <path class="cls-21" d="M43.26,50.29c-.91,0-1.8-.44-2.72-1.56-1.18-1.44-1.4-5.23.32-8.86,1.63-3.46,6.25-9.26,18.85-9.26h.01c11.51,0,17.77,5.87,19.79,11.36.91,2.48.87,4.79-.11,5.62-2.68,2.27-4.81,1.06-7.76-.62-2.79-1.59-6.25-3.56-11.7-3.56s-9.19,2.55-12.07,4.6c-1.76,1.25-3.22,2.29-4.61,2.29ZM59.73,31.11h-.01c-12.32,0-16.81,5.62-18.4,8.97-1.72,3.64-1.33,7.18-.38,8.33,2.03,2.47,3.77,1.23,6.65-.81,2.78-1.98,6.6-4.69,12.36-4.69s9.11,2.01,11.95,3.62c2.88,1.64,4.78,2.72,7.19.67.69-.59.9-2.52-.04-5.07-1.96-5.33-8.07-11.03-19.32-11.03Z"/>
        </g>
        <path class="cls-21" d="M66.71,31.7s4.25,2.51,3.13,5.27c-1.12,2.76.02,4.24.54,5.9.42,1.35-.35,2.99-.35,2.99l-1.67-.82s.86-1.12.18-2.65c-.79-1.78-.65-4.09-.35-5.88.54-3.16-3.61-5.2-4.08-5.31s2.58.51,2.58.51Z"/>
        <path class="cls-21" d="M53.81,31.32s-2.13,3.76-1.25,5.64c.89,1.88,1.1,3.19.46,4.62-.65,1.43-.67,3.19-.67,3.19l1.46-.3s.38-1.87.92-3.12-.06-3.85-.37-5.4c-.31-1.55.68-4.72,1.19-4.83s-1.74.18-1.74.18Z"/>
        <path class="cls-21" d="M61.55,43.42s-1.46-3.38-.8-5.35c.62-1.86.66-2.84.01-4.17-.65-1.33-.67-2.96-.67-2.96l1.49.08s.36,1.94.9,3.09-.06,3.57-.37,5,.68,4.38,1.19,4.48-1.74-.17-1.74-.17Z"/>
        <path class="cls-21" d="M51.42,31.59s-3.77,3.75-3.58,5.67c.19,1.93-1.03,5-1.51,5.9s-.23,5.24.17,5.56l-1.78.58s-1.3-3.5-.43-5.91c.87-2.41,1.62-3.82,1.8-5.73.1-1.02,1.23-4.32,2.75-4.88,1.34-.5,2.57-1.19,2.57-1.19Z"/>
        <path class="cls-21" d="M69.59,32.71s4.52,2.3,4.32,4.22c-.19,1.93,1.03,5,1.51,5.9s.23,5.24-.17,5.56l1.9.21s1.17-3.13.3-5.54c-.87-2.41-1.62-3.82-1.8-5.73-.1-1.02-1.97-2.87-3.5-3.44-1.34-.5-2.57-1.19-2.57-1.19Z"/>
        <circle class="cls-10" cx="51.77" cy="59.72" r=".28"/>
        <circle class="cls-10" cx="68.7" cy="59.24" r=".28"/>
        <path class="cls-20" d="M30.63,81.31c-1.5-1.64-1.34-.84-2.31-4.72-1.33-5.27-.36-9.67,1.7-11.86-.11.63-.92,3.55-1.05,4.51-.24,1.82-.16,2.85-.03,4.5.12,1.4.19,5,1.69,7.56Z"/>
        <path class="cls-21" d="M34.46,83.71c-.63,0-1.36-.14-2.14-.51-1.47-.7-3.44-2.4-4.48-6.54-1.1-4.38-.74-8.49.97-11.01.97-1.43,2.35-2.31,4-2.53,5.45-.74,14.79,9.14,15.19,9.56l-.36.34c-.09-.1-9.57-10.09-14.76-9.41-1.52.2-2.75.98-3.65,2.31-1.63,2.4-1.97,6.37-.9,10.61.99,3.94,2.84,5.55,4.21,6.21,1.31.63,2.49.52,3.1.24.62-.29,1-.65,1.15-1.09.32-.94-.37-2.25-1.1-3.65-.49-.94-1.01-1.91-1.29-2.9-.27-.94-.5-2.88.53-3.44,1.02-.55,2.79.59,5.26,3.41l-.38.33c-3.12-3.56-4.28-3.5-4.65-3.3-.6.33-.62,1.71-.29,2.86.27.94.77,1.89,1.25,2.81.78,1.49,1.52,2.9,1.13,4.04-.2.58-.66,1.04-1.41,1.39-.35.16-.82.27-1.38.27Z"/>
        <path class="cls-14" d="M84.22,82.47c2.66,2.23,4.43,2.01,5.43.55,1.06-1.54,1.29-4.44,1.75-6.45,1.5-6.5-1.06-11.13-3.77-12.54.53.56,2.37,2.88,2.73,5.16.28,1.81.55,3.07.43,4.72-.09,1.24-.25,2.12-.55,3.69-.18.96-.44,3.78-1.77,5.03-.94.88-3.62.34-4.25-.16Z"/>
        <path class="cls-21" d="M87.63,84.27c-.49,0-1.06-.09-1.7-.27-1.07-.29-1.85-.91-2.3-1.83-1.17-2.4.25-6.08.42-6.5.12-1.25.03-3.31-.74-3.62-.36-.15-1.28-.02-3.29,2.52l-.39-.31c1.71-2.16,2.98-3.03,3.87-2.67,1.37.56,1.08,3.8,1.04,4.17l-.02.07s-1.57,3.83-.45,6.13c.38.79,1.05,1.31,1.98,1.57,1.29.35,2.19.33,2.83-.07,1.2-.75,1.59-2.88,2.19-6.11.14-.75.29-1.56.46-2.43.67-3.32.07-6.43-1.67-8.75-1.36-1.8-3.32-2.94-5.4-3.12-5.19-.42-12.3,9.17-12.37,9.27l-.4-.29c.3-.41,7.34-9.96,12.82-9.48,2.22.19,4.32,1.4,5.76,3.32,1.83,2.43,2.45,5.68,1.76,9.14-.17.87-.32,1.68-.46,2.43-.62,3.36-1.04,5.58-2.42,6.45-.42.26-.92.4-1.52.4Z"/>
        <g>
          <path class="cls-19" d="M77.5,94.91h-35.25l-2.25-21.32c-.11-1.04.66-1.95,1.65-1.95h36.46c.99,0,1.76.91,1.65,1.95l-2.25,21.32Z"/>
          <path class="cls-21" d="M77.5,95.16h-35.25c-.13,0-.24-.1-.25-.22l-2.25-21.32c-.06-.58.12-1.17.51-1.59.36-.41.86-.63,1.39-.63h36.46c.53,0,1.03.22,1.39.63.39.43.57,1.01.51,1.59l-2.25,21.32c-.01.13-.12.22-.25.22ZM42.48,94.66h34.8l2.23-21.1c.05-.44-.09-.88-.38-1.21-.27-.3-.63-.46-1.02-.46h-36.46c-.39,0-.75.16-1.02.46-.29.32-.43.76-.38,1.21l2.23,21.1Z"/>
        </g>
        <path class="cls-16" d="M44.13,72.57c-.67-.01-2.33-.14-2.58.4-.66,1.41,1.28,19.95,1.64,20.56s-1.02-15.48.36-17.95c.88-1.59,4.64-.56,4.56-2.29-.03-.77-2.46-.69-3.99-.72Z"/>
        <path class="cls-1" d="M73.7,94.02c.67.01,2.4.1,2.65-.14.66-.66,1.09-8.14.73-8.42s-1.35,6.07-2.73,7.21c-.88.74-3.9.23-3.82,1.03.03.36,2.14.31,3.17.33Z"/>
      </g>
    </g>
  </g>
</svg>