<?xml version="1.0" encoding="UTF-8"?>
<svg id="Layer_2" data-name="Layer 2" xmlns="http://www.w3.org/2000/svg" xmlns:xlink="http://www.w3.org/1999/xlink" viewBox="0 0 41.32 44.11">
  <defs>
    <style>
      .cls-1 {
        fill: #6ba45f;
      }

      .cls-1, .cls-2, .cls-3, .cls-4, .cls-5, .cls-6 {
        stroke: #434740;
      }

      .cls-1, .cls-3, .cls-4, .cls-5, .cls-6 {
        stroke-width: .5px;
      }

      .cls-1, .cls-3, .cls-4, .cls-6 {
        stroke-miterlimit: 10;
      }

      .cls-7 {
        fill: #eaab99;
      }

      .cls-8 {
        stroke: #373737;
        stroke-width: .75px;
      }

      .cls-8, .cls-9, .cls-2, .cls-3 {
        fill: none;
      }

      .cls-8, .cls-2, .cls-5 {
        stroke-linecap: round;
        stroke-linejoin: round;
      }

      .cls-10 {
        fill: #f69782;
      }

      .cls-11 {
        fill: #f0cbab;
      }

      .cls-12, .cls-4 {
        fill: #373737;
      }

      .cls-13 {
        fill: #fff9f6;
      }

      .cls-14 {
        fill: #434740;
      }

      .cls-5 {
        fill: #f1f2f2;
      }

      .cls-15 {
        clip-path: url(#clippath);
      }

      .cls-6 {
        fill: #fed9ba;
      }
    </style>
    <clipPath id="clippath">
      <path class="cls-9" d="M20.66,4.32C9.39,4.32.25,13.46.25,24.73s8.96,19.13,20.23,19.13,20.59-7.85,20.59-19.13S31.94,4.32,20.66,4.32ZM20.66,41.35c-7,0-12.69-5.68-12.69-12.69s5.69-12.69,12.69-12.69,12.7,5.68,12.7,12.69-5.69,12.69-12.7,12.69Z"/>
    </clipPath>
  </defs>
  <g id="Layer_1-2" data-name="Layer 1">
    <path class="cls-2" d="M20.54,4.32s.57-3.11,1.46-2.36c1.12.95-1.28,1.69-1.51-.2-.2-1.64,2-1.22,2-1.22"/>
    <path class="cls-6" d="M21.47,43.38c-6.18-.06-13.46-1.59-13.46-8.95v-4.06c0-7.37,5.06-13.39,11.23-13.39h3.4c6.18,0,11.23,6.03,11.23,13.39v4.06c0,7.37-6.21,9.02-12.42,8.95Z"/>
    <path class="cls-13" d="M8.12,32.88s-.67,6.86,4.94,8.29c0,0-2.06-.36-3.17-3.35-.78-2.11-1.09-5.15-1.06-7.07.01-.8-.71,2.12-.71,2.12Z"/>
    <path class="cls-11" d="M33.49,30.17s1.66,10.47-4.97,11.28c0,0,2.06-.36,3.17-3.35.78-2.11,1.12-8.13,1.09-10.05-.01-.8.71,2.12.71,2.12Z"/>
    <ellipse class="cls-10" cx="10.58" cy="34.37" rx="2.09" ry="1.07"/>
    <ellipse class="cls-10" cx="31.78" cy="34.37" rx="2.09" ry="1.07"/>
    <path class="cls-7" d="M8.33,36.9s.62-1.87,1.82-5.14c1.53-4.15,1.4-8.96,4.7-9.12,0,0,.32,4.11,3.2,4.24,0,0-.28-4.54,1.11-5.55,2.2-1.58,7.67-.76,6.09,4.11,0,0,4.21-1.02,2.81-3.5,0,0,.95,1.04,2.46,3.9.82,1.55,2.82,3.28,3.01,4.1,0,0,5.37-3.44,2.99-8.53-3.03-6.51-14.62-8.51-20.49-7.57-5.87.95-16.45,6.67-7.7,23.04Z"/>
    <path class="cls-12" d="M8.35,38.42s.28-3.08,1.25-7.26c1-4.31,2.75-9.72,6.05-9.88,0,0-.38,4.83,2.5,4.96,0,0-.18-4.95,1.21-5.95,2.2-1.58,7.27-.12,5.7,4.75,0,0,3.57-1.6,2.53-4.52,0,0,5.02,5.86,6.38,10.72.57,2.06.62,2.79.39,4.81,0,0,5.51-7.99,2.37-15.68-2.71-6.65-16.02-8.64-21.89-7.69-5.87.95-15.23,9.36-6.48,25.74Z"/>
    <path class="cls-8" d="M13.07,30.62s1.09-1.04,2.35-1.04,2.06,1.29,2.06,1.29"/>
    <path class="cls-8" d="M29.33,30.62s-1.09-1.04-2.35-1.04-2.06,1.29-2.06,1.29"/>
    <path class="cls-5" d="M23.98,37.34c-.63.23-1.43.33-2.5.37-1.24.04-1.84-.18-2.5-.37-.7-.2-1.33-.6-1.33-1.33h0c0-.73.62-1.48,1.33-1.33.62.13.88.4,2.5.4,1.17,0,1.88-.31,2.5-.4.72-.11,1.33.6,1.33,1.33h0c0,.73-.64,1.08-1.33,1.33Z"/>
    <path class="cls-3" d="M17.72,35.57s1.72.82,3.74.82,3.74-.93,3.74-.93"/>
    <path class="cls-3" d="M19.77,34.9s-.61,1-.2,2.61"/>
    <path class="cls-3" d="M23.06,34.9s.61,1,.2,2.61"/>
    <path class="cls-3" d="M21.48,35.07s-.23,2.27,0,2.64"/>
    <path class="cls-1" d="M20.66,4.32C9.39,4.32.25,13.46.25,24.73s8.96,19.13,20.23,19.13,20.59-7.85,20.59-19.13S31.94,4.32,20.66,4.32ZM20.66,41.35c-7,0-12.69-5.68-12.69-12.69s5.69-12.69,12.69-12.69,12.7,5.68,12.7,12.69-5.69,12.69-12.7,12.69Z"/>
    <g class="cls-15">
      <path class="cls-4" d="M9.43,16.92s-7.04,8.91-6.94,19.97c.02,2.07-.61,8.03,0,10.21.49,1.72-.04,2.88,1.14,4.28,8.26,9.85,33.32,8.54,34.86,3.36,1.76-5.91.6-12.8,1.02-21.44.42-8.64-4.32-21.85-14.8-20.53-12.37,1.57-15.27,4.14-15.27,4.14Z"/>
      <path class="cls-6" d="M17.61,42.07s.45.39.04,1.32c-.22.5-1.35,1.58-1.45,1.89s4.88,2,4.88,2c0,0,4.39-1.43,5.28-2.88,0,0-1.05-2.08-1.59-3.27-.61-1.36-7.17.95-7.17.95Z"/>
    </g>
    <path class="cls-1" d="M20.66,4.32C9.39,4.32.25,13.46.25,24.73s8.96,19.13,20.23,19.13,20.59-7.85,20.59-19.13S31.94,4.32,20.66,4.32ZM20.66,41.35c-7,0-12.69-5.68-12.69-12.69s5.69-12.69,12.69-12.69,12.7,5.68,12.7,12.69-5.69,12.69-12.7,12.69Z"/>
    <path class="cls-14" d="M29.28,6.55s3.16,2.98,1.66,5.13c-1.5,2.15-.81,3.64-.69,5.16.1,1.24-.88,2.5-.88,2.5l-1.27-1.03s.96-.8.68-2.24c-.33-1.68.24-3.63.85-5.11,1.08-2.6-2.08-5.16-2.46-5.35s2.12.94,2.12.94Z"/>
    <path class="cls-14" d="M15.7,5.07s-1.67,3.41-.8,5.02,1.14,2.74.64,4.03-.42,2.84-.42,2.84l1.27-.34s.24-1.66.65-2.78-.26-3.37-.61-4.72.35-4.18.79-4.3-1.52.25-1.52.25Z"/>
    <path class="cls-14" d="M23.19,16.29s-1.4-3.24-.77-5.13c.6-1.78.63-2.72.01-4s-.64-2.84-.64-2.84l1.43.07s.34,1.86.86,2.96-.06,3.42-.35,4.8.65,4.2,1.14,4.3-1.67-.16-1.67-.16Z"/>
    <path class="cls-14" d="M11.94,6.04s-2.63,3.86-2.15,5.49-.06,4.49-.33,5.34.67,4.57,1.07,4.77l-1.26,1.43s-1.88-3.44-1.52-5.67.77-3.56.6-5.24c-.09-.89.34-3.93,1.57-4.67,1.08-.65,2.02-1.45,2.02-1.45Z"/>
    <path class="cls-14" d="M33.78,8.97s2.62,3.6,1.71,5.03-1.19,4.33-1.16,5.23-1.83,3.88-2.27,3.97l.8,1.9s2.69-2.64,2.97-4.88.25-3.64.87-5.21c.33-.83-.4-3.04-1.37-4.09-.85-.93-1.54-1.95-1.54-1.95Z"/>
  </g>
</svg>