<svg xmlns="http://www.w3.org/2000/svg" version="1.1" xmlns:xlink="http://www.w3.org/1999/xlink"
  xmlns:svgjs="http://svgjs.dev/svgjs" viewBox="0 0 2400 800">
  <g fill="#fbf4f5" transform="matrix(1,0,0,1,5.82373046875,318.23271560668945)">
    <path
      d="M-10,10C75.41666666666666,10.625,231.25,17.583333333333332,400,13C568.75,8.416666666666668,633.3333333333333,-16.375,800,-12C966.6666666666667,-7.625,1033.3333333333333,37.125,1200,34C1366.6666666666667,30.875,1433.3333333333333,-24.291666666666668,1600,-27C1766.6666666666667,-29.708333333333332,1833.3333333333333,18.291666666666668,2000,21C2166.6666666666665,23.708333333333332,2264.5833333333335,-92.95833333333333,2400,-14C2535.4166666666665,64.95833333333333,3254.1666666666665,209.58333333333331,2650,400C2045.8333333333335,590.4166666666667,156.25,795.8333333333334,-500,900"
      transform="matrix(1,0,0,1,0,35)" opacity="0.05"  stroke-width="10" stroke="#DD5868"></path>
    <path
      d="M-10,10C75.41666666666666,10.625,231.25,17.583333333333332,400,13C568.75,8.416666666666668,633.3333333333333,-16.375,800,-12C966.6666666666667,-7.625,1033.3333333333333,37.125,1200,34C1366.6666666666667,30.875,1433.3333333333333,-24.291666666666668,1600,-27C1766.6666666666667,-29.708333333333332,1833.3333333333333,18.291666666666668,2000,21C2166.6666666666665,23.708333333333332,2264.5833333333335,-92.95833333333333,2400,-14C2535.4166666666665,64.95833333333333,3254.1666666666665,209.58333333333331,2650,400C2045.8333333333335,590.4166666666667,156.25,795.8333333333334,-500,900"
      transform="matrix(1,0,0,1,0,70)" opacity="1.00"  stroke-width="10" stroke="#DD5868"></path>
  </g>
</svg>