<svg width="1440" height="730" viewBox="0 0 1440 730" fill="none" xmlns="http://www.w3.org/2000/svg">
<g clip-path="url(#clip0_300_775)">
<path d="M1067.5 296.5C1036.71 290.531 984.08 221.351 1000 135.5" stroke="#C1BEBE" stroke-width="3"/>
<path fill-rule="evenodd" clip-rule="evenodd" d="M1055 200.373C1033.07 212.813 995.857 262.282 983.446 324.983C952.783 504.022 903.177 577.856 817 607.113C797.259 613.815 812.477 667.747 828.265 723.699C846.549 788.495 865.596 856 832 856C781.682 856.885 767.905 874.974 747.201 902.158C722.873 934.1 688.982 978.599 575 1022.5C519.687 1043.8 588.835 1097.11 617.159 1118.94C629.912 1128.77 634.389 1132.22 615.5 1123.5C553.17 1094.71 206.061 1014.27 219.669 1072C219.669 1072 206.126 1101.37 184.104 1148.87H-74V1672.45C-91.779 1690.66 -107.03 1713.5 -119.041 1743.12C-210.465 1968.6 -160.561 1875.92 -74 1697.07V6913.87C-74 6941.49 -51.6143 6963.87 -24 6963.87H1520C1547.61 6963.87 1570 6941.49 1570 6913.87V1148.87H1356.76C1326.14 1104.72 1304.5 1072 1304.5 1072C1299.05 1070 1296.47 1059.11 1293.59 1046.96C1289.06 1027.86 1283.79 1005.66 1265.5 1010C1236.78 1016.82 1216.93 983.024 1197.32 949.624C1178.29 917.216 1159.49 885.183 1133 891C1100.67 898.099 1083.32 875.561 1063.7 850.086C1048.5 830.346 1031.93 808.842 1006 798C997.276 794.353 997.818 729.082 998.284 673.038C998.614 633.421 998.905 598.414 995.857 593.043C959.142 528.335 1033.28 316.409 1064.5 271.373C1073.49 258.401 1079.56 246.864 1084.57 237.323C1094.05 219.282 1099.78 208.373 1114.5 208.373C1115.66 208.373 1116.93 208.376 1118.31 208.38C1143.91 208.445 1206.19 208.602 1265.5 189.873C1325.3 170.99 1322.31 121.757 1313 94.873C1292.11 34.5283 1260.17 19 1230.63 19C1189.86 19 1169.39 61.6356 1154.44 92.769C1151.38 99.1495 1148.55 105.047 1145.82 109.995C1129.79 139.089 1082.41 184.823 1055 200.373Z" fill="#FBF4F5"/>
<path d="M983.446 324.983L981.975 324.692L981.971 324.711L981.968 324.73L983.446 324.983ZM1055 200.373L1054.26 199.068L1054.26 199.068L1055 200.373ZM817 607.113L817.482 608.533L817.482 608.533L817 607.113ZM828.265 723.699L826.821 724.107L826.821 724.107L828.265 723.699ZM832 856V854.5H831.987L831.974 854.5L832 856ZM747.201 902.158L748.395 903.067L748.395 903.067L747.201 902.158ZM575 1022.5L574.461 1021.1L574.461 1021.1L575 1022.5ZM617.159 1118.94L616.243 1120.13L616.243 1120.13L617.159 1118.94ZM615.5 1123.5L614.871 1124.86L614.871 1124.86L615.5 1123.5ZM219.669 1072L221.031 1072.63L221.247 1072.16L221.129 1071.66L219.669 1072ZM184.104 1148.87V1150.37H185.062L185.465 1149.5L184.104 1148.87ZM-74 1148.87V1147.37H-75.5V1148.87H-74ZM-74 1672.45L-72.9268 1673.5L-72.5 1673.06V1672.45H-74ZM-119.041 1743.12L-120.431 1742.56L-120.431 1742.56L-119.041 1743.12ZM-74 1697.07H-72.5L-75.3502 1696.41L-74 1697.07ZM1570 1148.87H1571.5V1147.37H1570V1148.87ZM1356.76 1148.87L1355.52 1149.73L1355.97 1150.37H1356.76V1148.87ZM1304.5 1072L1305.75 1071.17L1305.48 1070.76L1305.02 1070.59L1304.5 1072ZM1293.59 1046.96L1292.13 1047.31L1292.13 1047.31L1293.59 1046.96ZM1265.5 1010L1265.15 1008.54L1265.15 1008.54L1265.5 1010ZM1197.32 949.624L1198.61 948.864L1198.61 948.864L1197.32 949.624ZM1133 891L1132.68 889.535L1133 891ZM1063.7 850.086L1064.89 849.171L1064.89 849.171L1063.7 850.086ZM1006 798L1006.58 796.616L1006.58 796.616L1006 798ZM998.284 673.038L996.784 673.025L996.784 673.025L998.284 673.038ZM995.857 593.043L997.162 592.302L997.162 592.302L995.857 593.043ZM1064.5 271.373L1063.27 270.518L1063.27 270.518L1064.5 271.373ZM1084.57 237.323L1083.24 236.625L1083.24 236.625L1084.57 237.323ZM1118.31 208.38L1118.3 209.88L1118.3 209.88L1118.31 208.38ZM1265.5 189.873L1265.95 191.303L1265.95 191.303L1265.5 189.873ZM1313 94.873L1311.58 95.3638L1311.58 95.3638L1313 94.873ZM1230.63 19L1230.63 17.5L1230.63 19ZM1154.44 92.769L1153.09 92.1198L1153.09 92.1199L1154.44 92.769ZM1145.82 109.995L1144.51 109.271L1144.51 109.271L1145.82 109.995ZM984.918 325.275C991.084 294.124 1003.42 266.25 1016.93 244.625C1030.47 222.951 1045.09 207.718 1055.74 201.678L1054.26 199.068C1042.98 205.468 1028.03 221.189 1014.38 243.035C1000.7 264.93 988.22 293.142 981.975 324.692L984.918 325.275ZM817.482 608.533C860.904 593.791 895.133 567.792 922.323 522.994C949.474 478.261 969.581 414.826 984.925 325.237L981.968 324.73C966.648 414.179 946.62 477.18 919.758 521.438C892.935 565.631 859.273 591.177 816.518 605.692L817.482 608.533ZM829.709 723.292C821.805 695.283 814.085 667.912 810.791 646.707C809.143 636.093 808.628 627.162 809.693 620.526C810.759 613.881 813.322 609.945 817.482 608.533L816.518 605.692C810.807 607.631 807.87 612.95 806.731 620.051C805.59 627.161 806.165 636.467 807.827 647.167C811.154 668.592 818.937 696.163 826.821 724.107L829.709 723.292ZM832 857.5C836.46 857.5 840.167 856.375 843.129 854.178C846.082 851.987 848.172 848.821 849.572 844.95C852.348 837.267 852.507 826.513 851.078 813.978C848.213 788.854 838.838 755.644 829.709 723.292L826.821 724.107C835.976 756.55 845.266 789.491 848.097 814.318C849.516 826.758 849.28 836.93 846.75 843.93C845.496 847.399 843.706 850.014 841.342 851.768C838.986 853.515 835.939 854.5 832 854.5V857.5ZM748.395 903.067C758.778 889.433 767.247 878.338 779.314 870.474C791.328 862.644 807.049 857.939 832.026 857.5L831.974 854.5C806.633 854.946 790.306 859.729 777.676 867.961C765.099 876.158 756.328 887.699 746.008 901.249L748.395 903.067ZM575.539 1023.9C632.643 1001.91 669.753 979.736 695.658 959.016C721.571 938.289 736.218 919.055 748.395 903.067L746.008 901.249C733.857 917.203 719.394 936.189 693.784 956.673C668.166 977.164 631.339 999.193 574.461 1021.1L575.539 1023.9ZM618.075 1117.75C603.869 1106.8 579.685 1088.15 565.92 1069.63C559.014 1060.34 554.968 1051.39 555.761 1043.64C556.534 1036.09 561.989 1029.12 575.539 1023.9L574.461 1021.1C560.355 1026.53 553.711 1034.21 552.777 1043.33C551.864 1052.25 556.504 1061.99 563.512 1071.42C577.573 1090.33 602.126 1109.25 616.243 1120.13L618.075 1117.75ZM614.871 1124.86C619.592 1127.04 622.903 1128.49 625.003 1129.26C626.02 1129.63 626.883 1129.9 627.514 1129.97C627.684 1129.99 627.885 1130.01 628.096 1129.99C628.293 1129.97 628.608 1129.92 628.924 1129.72C629.29 1129.5 629.582 1129.12 629.682 1128.65C629.77 1128.24 629.682 1127.88 629.61 1127.68C629.473 1127.29 629.22 1126.96 629.033 1126.73C628.819 1126.48 628.553 1126.2 628.256 1125.92C627.66 1125.35 626.854 1124.66 625.886 1123.87C623.947 1122.28 621.256 1120.21 618.075 1117.75L616.243 1120.13C619.439 1122.59 622.089 1124.64 623.986 1126.19C624.936 1126.97 625.672 1127.6 626.182 1128.09C626.438 1128.33 626.616 1128.52 626.73 1128.66C626.871 1128.83 626.83 1128.82 626.78 1128.68C626.753 1128.6 626.678 1128.35 626.747 1128.03C626.829 1127.64 627.07 1127.34 627.352 1127.17C627.585 1127.02 627.784 1127 627.832 1127C627.893 1126.99 627.911 1127 627.862 1126.99C627.622 1126.97 627.06 1126.82 626.039 1126.44C624.065 1125.72 620.853 1124.32 616.129 1122.14L614.871 1124.86ZM221.129 1071.66C220.364 1068.41 220.879 1065.79 222.414 1063.61C223.99 1061.37 226.751 1059.43 230.763 1057.85C238.801 1054.69 251.253 1053.21 267.017 1053.15C298.48 1053.02 342.433 1058.54 388.845 1066.79C435.237 1075.02 484.005 1085.96 525.065 1096.64C566.166 1107.33 599.425 1117.73 614.871 1124.86L616.129 1122.14C600.409 1114.88 566.906 1104.42 525.82 1093.74C484.692 1083.04 435.846 1072.09 389.37 1063.83C342.915 1055.58 298.746 1050.02 267.005 1050.15C251.168 1050.21 238.247 1051.69 229.665 1055.06C225.366 1056.75 222.004 1058.98 219.96 1061.89C217.874 1064.85 217.272 1068.37 218.209 1072.34L221.129 1071.66ZM185.465 1149.5C196.476 1125.75 205.368 1106.53 211.506 1093.25C214.575 1086.61 216.957 1081.46 218.57 1077.96C219.377 1076.21 219.992 1074.88 220.406 1073.98C220.612 1073.54 220.769 1073.2 220.873 1072.97C220.926 1072.86 220.965 1072.77 220.991 1072.71C221.004 1072.69 221.014 1072.66 221.021 1072.65C221.024 1072.64 221.027 1072.64 221.028 1072.63C221.029 1072.63 221.03 1072.63 221.03 1072.63C221.03 1072.63 221.031 1072.63 221.031 1072.63C221.031 1072.63 221.031 1072.63 219.669 1072C218.307 1071.37 218.306 1071.37 218.306 1071.37C218.306 1071.37 218.306 1071.37 218.306 1071.37C218.306 1071.37 218.305 1071.38 218.304 1071.38C218.302 1071.38 218.3 1071.39 218.297 1071.39C218.29 1071.41 218.28 1071.43 218.267 1071.46C218.241 1071.51 218.201 1071.6 218.149 1071.71C218.045 1071.94 217.888 1072.28 217.682 1072.73C217.268 1073.62 216.653 1074.95 215.847 1076.7C214.233 1080.2 211.852 1085.35 208.783 1091.99C202.645 1105.27 193.754 1124.49 182.743 1148.24L185.465 1149.5ZM-74 1150.37H184.104V1147.37H-74V1150.37ZM-72.5 1672.45V1148.87H-75.5V1672.45H-72.5ZM-117.651 1743.68C-105.708 1714.23 -90.5604 1691.56 -72.9268 1673.5L-75.0733 1671.4C-92.9975 1689.76 -108.352 1712.77 -120.431 1742.56L-117.651 1743.68ZM-75.3502 1696.41C-96.9888 1741.12 -116.333 1780.44 -131.749 1810.74C-147.186 1841.09 -158.635 1862.3 -164.503 1870.87C-165.23 1871.94 -165.856 1872.78 -166.381 1873.41C-166.924 1874.07 -167.295 1874.42 -167.505 1874.57C-167.614 1874.64 -167.576 1874.59 -167.418 1874.56C-167.2 1874.52 -166.838 1874.55 -166.531 1874.81C-166.29 1875.02 -166.254 1875.23 -166.266 1875.18C-166.272 1875.16 -166.292 1875.05 -166.29 1874.81C-166.282 1873.81 -165.927 1871.86 -165.092 1868.77C-164.272 1865.73 -163.026 1861.72 -161.324 1856.68C-154.515 1836.5 -140.508 1800.06 -117.651 1743.68L-120.431 1742.56C-143.286 1798.93 -157.325 1835.45 -164.167 1855.72C-165.878 1860.79 -167.145 1864.86 -167.989 1867.99C-168.818 1871.06 -169.279 1873.35 -169.29 1874.79C-169.293 1875.16 -169.267 1875.54 -169.179 1875.9C-169.096 1876.24 -168.917 1876.72 -168.485 1877.09C-167.986 1877.52 -167.385 1877.6 -166.879 1877.51C-166.434 1877.43 -166.061 1877.22 -165.789 1877.03C-165.236 1876.64 -164.657 1876.04 -164.071 1875.33C-163.466 1874.6 -162.783 1873.67 -162.027 1872.57C-156.026 1863.8 -144.483 1842.39 -129.075 1812.1C-113.646 1781.77 -94.2918 1742.44 -72.6499 1697.72L-75.3502 1696.41ZM-72.5 6913.87V1697.07H-75.5V6913.87H-72.5ZM-24 6962.37C-50.7858 6962.37 -72.5 6940.66 -72.5 6913.87H-75.5C-75.5 6942.32 -52.4427 6965.37 -24 6965.37V6962.37ZM1520 6962.37H-24V6965.37H1520V6962.37ZM1568.5 6913.87C1568.5 6940.66 1546.79 6962.37 1520 6962.37V6965.37C1548.44 6965.37 1571.5 6942.32 1571.5 6913.87H1568.5ZM1568.5 1148.87V6913.87H1571.5V1148.87H1568.5ZM1356.76 1150.37H1570V1147.37H1356.76V1150.37ZM1304.5 1072C1303.25 1072.83 1303.25 1072.83 1303.25 1072.83C1303.25 1072.83 1303.25 1072.83 1303.25 1072.83C1303.25 1072.83 1303.25 1072.83 1303.25 1072.83C1303.26 1072.84 1303.26 1072.84 1303.26 1072.85C1303.28 1072.87 1303.29 1072.89 1303.31 1072.92C1303.35 1072.99 1303.42 1073.08 1303.5 1073.21C1303.67 1073.46 1303.91 1073.83 1304.24 1074.32C1304.89 1075.3 1305.86 1076.76 1307.11 1078.64C1309.62 1082.4 1313.28 1087.87 1317.9 1094.72C1327.14 1108.42 1340.21 1127.65 1355.52 1149.73L1357.99 1148.02C1342.69 1125.95 1329.63 1106.74 1320.39 1093.04C1315.77 1086.19 1312.11 1080.73 1309.61 1076.97C1308.35 1075.09 1307.39 1073.64 1306.74 1072.66C1306.41 1072.17 1306.17 1071.8 1306 1071.55C1305.92 1071.42 1305.86 1071.33 1305.81 1071.27C1305.79 1071.24 1305.78 1071.21 1305.77 1071.2C1305.76 1071.19 1305.76 1071.18 1305.76 1071.18C1305.75 1071.18 1305.75 1071.17 1305.75 1071.17C1305.75 1071.17 1305.75 1071.17 1305.75 1071.17C1305.75 1071.17 1305.75 1071.17 1304.5 1072ZM1292.13 1047.31C1293.56 1053.35 1294.95 1059.21 1296.68 1063.81C1297.54 1066.12 1298.52 1068.18 1299.68 1069.82C1300.83 1071.45 1302.24 1072.77 1303.98 1073.41L1305.02 1070.59C1304.04 1070.23 1303.08 1069.43 1302.13 1068.09C1301.18 1066.74 1300.31 1064.94 1299.49 1062.76C1297.84 1058.37 1296.5 1052.72 1295.05 1046.61L1292.13 1047.31ZM1265.85 1011.46C1270.1 1010.45 1273.46 1011 1276.23 1012.56C1279.04 1014.15 1281.39 1016.86 1283.4 1020.43C1287.44 1027.6 1289.85 1037.69 1292.13 1047.31L1295.05 1046.61C1292.8 1037.13 1290.31 1026.57 1286.01 1018.95C1283.85 1015.12 1281.17 1011.9 1277.71 1009.95C1274.2 1007.97 1270.05 1007.38 1265.15 1008.54L1265.85 1011.46ZM1196.03 950.383C1205.81 967.039 1215.76 984.001 1226.9 995.92C1238.06 1007.86 1250.72 1015.05 1265.85 1011.46L1265.15 1008.54C1251.56 1011.77 1239.94 1005.48 1229.09 993.871C1218.22 982.246 1208.45 965.609 1198.61 948.864L1196.03 950.383ZM1133.32 892.465C1145.78 889.728 1156.6 895.809 1166.85 906.991C1177.11 918.181 1186.49 934.136 1196.03 950.383L1198.61 948.864C1189.13 932.703 1179.58 916.438 1169.06 904.964C1158.53 893.481 1146.7 886.455 1132.68 889.535L1133.32 892.465ZM1062.51 851.001C1072.28 863.691 1081.66 875.886 1092.7 883.969C1103.84 892.126 1116.69 896.117 1133.32 892.465L1132.68 889.535C1116.98 892.982 1104.99 889.254 1094.47 881.548C1083.84 873.768 1074.73 861.956 1064.89 849.171L1062.51 851.001ZM1005.42 799.384C1030.93 810.049 1047.27 831.214 1062.51 851.001L1064.89 849.171C1049.72 829.478 1032.94 807.635 1006.58 796.616L1005.42 799.384ZM996.784 673.025C996.552 701.036 996.299 731.403 997.197 755.224C997.646 767.129 998.384 777.451 999.566 785.048C1000.16 788.839 1000.87 792.018 1001.74 794.397C1002.17 795.586 1002.66 796.628 1003.23 797.46C1003.8 798.284 1004.51 799.004 1005.42 799.384L1006.58 796.616C1006.4 796.54 1006.09 796.323 1005.71 795.762C1005.33 795.211 1004.94 794.422 1004.55 793.368C1003.78 791.259 1003.11 788.303 1002.53 784.586C1001.38 777.168 1000.64 766.986 1000.19 755.111C999.3 731.374 999.551 701.084 999.784 673.05L996.784 673.025ZM994.552 593.783C994.8 594.219 995.095 595.137 995.374 596.667C995.645 598.149 995.878 600.059 996.074 602.364C996.466 606.97 996.704 613.049 996.837 620.226C997.104 634.576 996.949 653.209 996.784 673.025L999.784 673.05C999.949 653.249 1000.1 634.57 999.837 620.17C999.703 612.972 999.463 606.816 999.063 602.11C998.863 599.758 998.621 597.742 998.325 596.127C998.039 594.56 997.676 593.209 997.162 592.302L994.552 593.783ZM1063.27 270.518C1055.36 281.928 1044.82 303.754 1034.04 330.982C1023.26 358.246 1012.19 391.036 1003.25 424.443C994.315 457.843 987.491 491.905 985.207 521.702C982.928 551.422 985.139 577.192 994.552 593.783L997.162 592.302C988.218 576.54 985.927 551.553 988.198 521.931C990.463 492.385 997.24 458.518 1006.15 425.219C1015.06 391.927 1026.09 359.246 1036.83 332.086C1047.59 304.889 1058.03 283.336 1065.73 272.228L1063.27 270.518ZM1083.24 236.625C1078.23 246.164 1072.2 257.628 1063.27 270.518L1065.73 272.228C1074.78 259.173 1080.88 247.564 1085.9 238.02L1083.24 236.625ZM1114.5 206.873C1106.67 206.873 1101.16 209.818 1096.45 215.082C1091.84 220.234 1087.95 227.666 1083.24 236.625L1085.9 238.02C1090.67 228.938 1094.38 221.896 1098.69 217.083C1102.9 212.382 1107.62 209.873 1114.5 209.873V206.873ZM1118.31 206.88C1116.93 206.876 1115.66 206.873 1114.5 206.873V209.873C1115.66 209.873 1116.92 209.876 1118.3 209.88L1118.31 206.88ZM1265.05 188.443C1205.98 207.094 1143.91 206.945 1118.31 206.88L1118.3 209.88C1143.9 209.945 1206.39 210.11 1265.95 191.303L1265.05 188.443ZM1311.58 95.3638C1316.18 108.63 1319.17 127.313 1313.73 144.931C1308.33 162.443 1294.53 179.134 1265.05 188.443L1265.95 191.303C1296.27 181.729 1310.87 164.362 1316.6 145.816C1322.29 127.375 1319.13 107.999 1314.42 94.3822L1311.58 95.3638ZM1230.63 20.5C1245.12 20.5 1260.14 24.3003 1274.12 35.4788C1288.12 46.6749 1301.2 65.3677 1311.58 95.3638L1314.42 94.3822C1303.91 64.0336 1290.57 44.7899 1275.99 33.1357C1261.4 21.4639 1245.68 17.5 1230.63 17.5L1230.63 20.5ZM1155.79 93.4182C1163.28 77.8194 1172.06 59.5513 1184 45.1677C1195.92 30.8168 1210.85 20.5 1230.63 20.5L1230.63 17.5C1209.64 17.5 1193.94 28.501 1181.7 43.2512C1169.48 57.9688 1160.55 76.5852 1153.09 92.1198L1155.79 93.4182ZM1147.13 110.719C1149.88 105.726 1152.74 99.7876 1155.79 93.4182L1153.09 92.1199C1150.02 98.5115 1147.21 104.367 1144.51 109.271L1147.13 110.719ZM1055.74 201.678C1069.61 193.808 1088.42 178.383 1105.73 161.332C1123.04 144.285 1139.01 125.457 1147.13 110.719L1144.51 109.271C1136.6 123.627 1120.87 142.213 1103.62 159.194C1086.39 176.171 1067.8 191.388 1054.26 199.068L1055.74 201.678Z" fill="#DD5868"/>
<path d="M998.5 136.5L998.33 135.01L998.41 137.997L998.5 136.5ZM1066.29 297.469L1064.84 297.058L1067.57 298.236L1066.29 297.469ZM1032.78 132.581L1032.95 134.071L1035.52 133.778L1033.99 131.696L1032.78 132.581ZM1043.09 58.218L1042.29 56.949L1042.29 56.949L1043.09 58.218ZM1124.5 55.4999L1123.22 56.2816L1123.22 56.2816L1124.5 55.4999ZM1127.23 60.722L1125.85 61.3092L1126.65 63.1952L1128.21 61.8601L1127.23 60.722ZM1219.43 10.5235L1219.14 9.05152L1219.43 10.5235ZM1308.14 184.944L1307.14 183.827L1307.14 183.827L1308.14 184.944ZM1137.85 222.506L1137.73 221.011L1137.73 221.011L1137.85 222.506ZM1109.5 224.855L1109.36 223.361L1108.6 223.43L1108.21 224.088L1109.5 224.855ZM1065.8 68.3155L1066.54 69.6203L1066.54 69.6203L1065.8 68.3155ZM1113.12 73.5139L1114.16 74.5978L1114.96 73.8294L1114.46 72.8374L1113.12 73.5139ZM1055.51 129.984L1054.31 130.89L1054.83 131.571L1055.68 131.474L1055.51 129.984ZM1067.82 128.576L1067.99 130.066L1068.81 129.972L1069.17 129.225L1067.82 128.576ZM998.41 137.997C1009.79 138.679 1020.72 145.043 1030.49 155.381C1040.26 165.712 1048.78 179.901 1055.3 195.943C1068.37 228.062 1073.33 267.238 1064.84 297.058L1067.73 297.88C1076.45 267.231 1071.32 227.348 1058.08 194.812C1051.45 178.527 1042.77 163.99 1032.67 153.32C1022.59 142.658 1011 135.746 998.59 135.003L998.41 137.997ZM1032.61 131.091L998.33 135.01L998.67 137.99L1032.95 134.071L1032.61 131.091ZM1042.29 56.949C1024.25 68.3199 1017.51 82.1083 1017.43 95.8761C1017.35 109.515 1023.81 122.85 1031.57 133.467L1033.99 131.696C1026.41 121.328 1020.35 108.621 1020.43 95.8935C1020.5 83.2954 1026.58 70.3943 1043.89 59.4871L1042.29 56.949ZM1125.78 54.7182C1121.85 48.2797 1117.36 43.4102 1112.1 40.2143C1106.83 37.009 1100.86 35.5419 1094.07 35.7749C1080.58 36.2375 1063.78 43.4091 1042.29 56.949L1043.89 59.4871C1065.31 45.9877 1081.53 39.2066 1094.17 38.7731C1100.44 38.558 1105.82 39.907 1110.55 42.7782C1115.29 45.6589 1119.46 50.1264 1123.22 56.2816L1125.78 54.7182ZM1128.61 60.1348C1127.89 58.4503 1126.96 56.6473 1125.78 54.7182L1123.22 56.2816C1124.33 58.105 1125.2 59.778 1125.85 61.3092L1128.61 60.1348ZM1219.14 9.05152C1185.83 15.5761 1152.96 36.6514 1126.25 59.5839L1128.21 61.8601C1154.76 39.065 1187.16 18.3743 1219.72 11.9956L1219.14 9.05152ZM1309.14 186.061C1341.27 157.249 1341.04 108.479 1321.92 69.4293C1302.78 30.3549 1264.34 0.196464 1219.14 9.05152L1219.72 11.9956C1263.09 3.4993 1300.43 32.367 1319.22 70.7487C1338.03 109.155 1337.87 156.271 1307.14 183.827L1309.14 186.061ZM1137.97 224.002C1168.62 221.577 1203.9 218.787 1235.21 213.291C1250.86 210.542 1265.56 207.11 1278.22 202.693C1290.87 198.282 1301.57 192.854 1309.14 186.061L1307.14 183.827C1299.98 190.245 1289.7 195.511 1277.23 199.861C1264.78 204.205 1250.25 207.603 1234.69 210.336C1203.55 215.803 1168.41 218.584 1137.73 221.011L1137.97 224.002ZM1109.64 226.349C1118.39 225.551 1127.93 224.796 1137.97 224.002L1137.73 221.011C1127.7 221.805 1118.14 222.561 1109.36 223.361L1109.64 226.349ZM1067.57 298.236L1110.79 225.622L1108.21 224.088L1065 296.702L1067.57 298.236ZM1066.54 69.6203C1080.57 61.6641 1090.5 60.1934 1097.51 61.8977C1104.47 63.591 1108.91 68.5091 1111.79 74.1904L1114.46 72.8374C1111.35 66.6824 1106.32 60.9534 1098.22 58.9826C1090.16 57.0229 1079.42 58.8711 1065.06 67.0106L1066.54 69.6203ZM1056.7 129.077C1051.07 121.65 1044.77 111.73 1044.21 101.254C1043.93 96.0654 1045.07 90.714 1048.45 85.4043C1051.85 80.076 1057.55 74.716 1066.54 69.6203L1065.06 67.0106C1055.77 72.2759 1049.65 77.9428 1045.92 83.7924C1042.18 89.6605 1040.91 95.6379 1041.21 101.414C1041.82 112.867 1048.65 123.42 1054.31 130.89L1056.7 129.077ZM1067.65 127.086L1055.34 128.493L1055.68 131.474L1067.99 130.066L1067.65 127.086ZM1112.09 72.43C1088.62 94.8774 1071.65 117.131 1066.47 127.927L1069.17 129.225C1074.12 118.913 1090.79 96.9564 1114.16 74.5978L1112.09 72.43Z" fill="#C1BEBE"/>
<g clip-path="url(#clip1_300_775)">
<path d="M1257.91 106.941C1258.9 107.878 1259.42 109.164 1259.4 110.472C1259.39 111.125 1259.24 111.784 1258.95 112.407L1243.3 150.817L1257.54 159.614C1258.86 160.433 1259.4 162.075 1258.81 163.52L1256.63 168.882C1255.92 170.65 1253.82 171.441 1252.11 170.589L1238.1 163.591L1232.18 178.101C1231.46 179.868 1229.37 180.656 1227.66 179.801L1222.49 177.209C1221.09 176.511 1220.41 174.923 1220.87 173.434L1225.75 157.43L1188.64 138.905C1188.41 138.801 1188.18 138.679 1187.97 138.543C1186.5 137.589 1185.65 135.893 1185.82 134.109L1187.49 116.499C1187.66 114.648 1188.89 113.049 1190.66 112.385L1218.1 102.04L1224.91 120.086L1205.44 127.421L1230.24 142.745L1238.75 114.867L1224.91 120.086L1218.1 102.04L1239.94 93.8112C1241.7 93.147 1243.68 93.5356 1245.03 94.8099L1257.91 106.941Z" fill="#3992E0"/>
</g>
<g clip-path="url(#clip2_300_775)">
<path d="M1122.64 149.44C1121.54 149.817 1120.55 150.449 1119.67 151.253C1119.1 151.749 1118.6 152.187 1118.2 152.572C1117.75 152.932 1117.46 153.221 1117.32 153.376L1123.73 160.736C1124.06 160.491 1124.36 160.265 1124.63 160.036L1125.79 159.025C1126.64 158.281 1127.38 157.406 1127.96 156.437C1128.49 155.629 1128.74 154.679 1128.75 153.711C1128.73 152.763 1128.3 151.828 1127.46 150.864C1126.89 150.166 1126.13 149.639 1125.26 149.353C1124.39 149.108 1123.49 149.127 1122.64 149.44ZM1128.84 112.765L1094.88 142.336C1089.73 146.819 1089.2 154.606 1093.68 159.754L1122.1 192.391C1126.59 197.539 1134.37 198.076 1139.52 193.593L1173.48 164.023C1178.62 159.539 1179.16 151.753 1174.68 146.605L1146.25 113.967C1141.77 108.819 1133.98 108.282 1128.84 112.765ZM1134.87 152.386C1135.07 154.374 1134.64 156.362 1133.67 158.128C1132.66 159.973 1131.19 161.601 1129.39 163.165C1128.87 163.623 1128.52 163.928 1128.28 164.097C1128.04 164.266 1127.73 164.533 1127.32 164.896L1133.44 171.925C1133.6 172.059 1133.6 172.288 1133.47 172.444L1129.22 176.145C1129.04 176.298 1128.88 176.284 1128.71 176.087L1109.08 153.548C1108.94 153.395 1108.93 153.25 1109.09 153.116C1109.46 152.792 1109.81 152.487 1110.29 152.026C1110.8 151.546 1111.35 151.069 1111.92 150.532C1112.49 149.995 1113.13 149.442 1113.79 148.829C1114.45 148.215 1115.11 147.643 1115.76 147.071C1117.56 145.506 1119.24 144.428 1120.87 143.82C1122.29 143.238 1123.83 142.974 1125.37 143.06C1126.68 143.15 1127.97 143.528 1129.14 144.164C1130.27 144.8 1131.26 145.589 1132.12 146.575C1133.76 148.457 1134.68 150.394 1134.87 152.386ZM1157.83 147.379C1157.98 148.79 1157.71 150.212 1157.07 151.468C1156.4 152.86 1155.29 154.244 1153.71 155.619C1152.71 156.495 1151.64 157.27 1150.49 157.929C1149.61 158.463 1148.63 158.892 1147.64 159.174C1147.42 159.222 1147.17 159.166 1147.04 158.972L1143.72 155.16C1143.67 155.097 1143.61 154.986 1143.64 154.885C1143.66 154.786 1143.75 154.749 1143.85 154.735C1145.15 154.495 1146.35 154.066 1147.51 153.443C1148.53 152.939 1149.5 152.285 1150.38 151.52C1151.21 150.795 1151.7 150.169 1151.93 149.628C1152.14 149.17 1152.06 148.587 1151.72 148.193C1151.45 147.884 1151.03 147.754 1150.43 147.775C1149.83 147.797 1148.82 148.096 1147.38 148.611C1145.92 149.189 1144.44 149.558 1142.9 149.745C1141.8 149.852 1140.68 149.713 1139.61 149.334C1138.65 148.937 1137.81 148.323 1137.16 147.535C1136.34 146.593 1135.82 145.466 1135.6 144.233C1135.39 142.88 1135.59 141.475 1136.15 140.217C1136.72 138.799 1137.8 137.432 1139.35 136.078C1140.25 135.295 1141.23 134.56 1142.24 133.909C1142.98 133.424 1143.76 133.046 1144.57 132.772C1144.67 132.72 1144.84 132.729 1144.96 132.779C1145.05 132.847 1145.15 132.916 1145.23 133.003L1148.34 136.574C1148.41 136.662 1148.45 136.787 1148.42 136.888C1148.26 137.104 1148.15 137.199 1148.03 137.232C1147.06 137.454 1146.15 137.823 1145.27 138.318C1144.31 138.849 1143.4 139.445 1142.57 140.17C1142.12 140.53 1141.71 140.996 1141.39 141.47C1141.16 141.782 1141.05 142.147 1141.09 142.5C1141.14 142.77 1141.26 143.047 1141.43 143.244C1141.6 143.441 1141.86 143.562 1142.15 143.621C1142.56 143.69 1142.99 143.66 1143.41 143.564C1144.14 143.39 1144.88 143.171 1145.59 142.934C1147.12 142.296 1148.74 141.852 1150.36 141.593C1151.48 141.421 1152.61 141.522 1153.67 141.906C1154.63 142.297 1155.48 142.916 1156.14 143.721C1157.06 144.732 1157.65 146.027 1157.83 147.379Z" fill="#2B4687"/>
</g>
</g>
<defs>
<clipPath id="clip0_300_775">
<rect width="1440" height="730" fill="white"/>
</clipPath>
<clipPath id="clip1_300_775">
<rect width="95" height="96" fill="white" transform="translate(1202.5 196.752) rotate(-110.651)"/>
</clipPath>
<clipPath id="clip2_300_775">
<rect width="69.7168" height="69.7168" fill="white" transform="translate(1085 149.786) rotate(-41.0524)"/>
</clipPath>
</defs>
</svg>
