<?xml version="1.0" encoding="UTF-8"?>
<svg id="Layer_1" xmlns="http://www.w3.org/2000/svg" viewBox="0 0 1440 309">
  <defs>
    <style>
      .cls-1 {
        fill: #fff;
      }

      .cls-2 {
        fill: none;
      }

      .cls-3 {
        fill: #dd5868;
      }

      .cls-4 {
        fill: #fbf4f5;
        fill-rule: evenodd;
      }
    </style>
  </defs>
  <path class="cls-2" d="M1440,0v105.61c-.99-.07-1.99-.11-3-.11-22.37,0-40.5,18.13-40.5,40.5v18h.05v6.96c0,26.25-21.28,47.52-47.53,47.52s-47.52-21.27-47.52-47.52v-24.96c0-22.37-18.13-40.5-40.5-40.5s-40.5,18.13-40.5,40.5v70c0,26.23-21.27,47.5-47.5,47.5s-47.5-21.27-47.5-47.5v-70c0-22.37-18.13-40.5-40.5-40.5s-40.5,18.13-40.5,40.5v70c0,26.23-21.27,47.5-47.5,47.5s-47.5-21.27-47.5-47.5v-70c0-22.37-18.13-40.5-40.5-40.5s-40.5,18.13-40.5,40.5v107c0,26.23-21.27,47.5-47.5,47.5s-47.5-21.27-47.5-47.5v-107c0-22.37-18.13-40.5-40.5-40.5s-40.5,18.13-40.5,40.5v18h.05v46.96c0,26.25-21.28,47.52-47.53,47.52s-47.52-21.27-47.52-47.52v-100.96c0-22.37-18.13-40.5-40.5-40.5s-40.5,18.13-40.5,40.5v54h.05v6.96c0,26.25-21.28,47.52-47.53,47.52s-47.52-21.27-47.52-47.52v-24.96c0-22.37-18.13-40.5-40.5-40.5s-40.5,18.13-40.5,40.5v18h.05v49.96c0,26.25-21.28,47.52-47.53,47.52s-47.52-21.27-47.52-47.52v-88.96c0-22.37-18.13-40.5-40.5-40.5s-40.5,18.13-40.5,40.5v39h.05c0,.5-.01,1-.03,1.5,0,.21-.01.43-.02.64v.86h-.05c-1.57,24.83-22.2,44.48-47.43,44.48s-45.86-19.65-47.42-44.48h-.1v-42c0-22.37-18.13-40.5-40.5-40.5-11.37,0-21.64,4.68-29,12.23V0h1440Z"/>
  <g>
    <path class="cls-4" d="M1572-133V114c0,27.61-22.39,50-50,50h-44.5v-18c0-21.36-16.53-38.86-37.5-40.39-.99-.07-1.99-.11-3-.11-22.37,0-40.5,18.13-40.5,40.5v18h-1.45v6.96c0,25.42-20.61,46.02-46.03,46.02s-46.02-20.6-46.02-46.02v-6.96h-1.5v-18c0-22.37-18.13-40.5-40.5-40.5s-40.5,18.13-40.5,40.5v18h-1.5v52c0,25.4-20.59,46-46,46s-46-20.6-46-46v-52h-1.5v-18c0-22.37-18.13-40.5-40.5-40.5s-40.5,18.13-40.5,40.5v18h-1.5v52c0,25.4-20.59,46-46,46s-46-20.6-46-46v-52h-1.5v-18c0-22.37-18.13-40.5-40.5-40.5s-40.5,18.13-40.5,40.5v18h-1.5v89c0,25.4-20.59,46-46,46s-46-20.6-46-46v-89h-1.5v-18c0-22.37-18.13-40.5-40.5-40.5s-40.5,18.13-40.5,40.5v18h-1.45v46.96c0,25.42-20.61,46.02-46.03,46.02s-46.02-20.6-46.02-46.02v-46.96h-1.5v-54c0-22.37-18.13-40.5-40.5-40.5s-40.5,18.13-40.5,40.5v54h-1.45v6.96c0,25.42-20.61,46.02-46.03,46.02s-46.02-20.6-46.02-46.02v-6.96h-1.5v-18c0-22.37-18.13-40.5-40.5-40.5s-40.5,18.13-40.5,40.5v18h-1.45v49.96c0,25.42-20.61,46.02-46.03,46.02s-46.02-20.6-46.02-46.02v-49.96h-1.5v-39c0-22.37-18.13-40.5-40.5-40.5s-40.5,18.13-40.5,40.5v39h-1.45c0,.7-.02,1.39-.05,2.08-.01.31-.03.61-.05.92-1.57,24-21.53,42.98-45.93,42.98s-44.36-18.98-45.92-42.98c-.07-.99-.1-1.99-.1-3h-1.5v-39c0-22.37-18.13-40.5-40.5-40.5-11.37,0-21.64,4.68-29,12.23-7.12,7.29-11.5,17.27-11.5,28.27v39h-10.5c-27.61,0-50-22.39-50-50v-247h1644Z"/>
    <path class="cls-3" d="M1572-134.5v1.5h1.5v-1.5h-1.5ZM-73.5-134.5v1.5h1.5v-1.5h-1.5ZM1393.55,162.5v1.5h1.5v-1.5h-1.5ZM1303,162.5v1.5h1.5v-1.5h-1.5ZM1217.5,162.5v1.5h1.5v-1.5h-1.5ZM1127,162.5v1.5h1.5v-1.5h-1.5ZM1041.5,162.5v1.5h1.5v-1.5h-1.5ZM951,162.5v1.5h1.5v-1.5h-1.5ZM865.5,162.5v1.5h1.5v-1.5h-1.5ZM775,162.5v1.5h1.5v-1.5h-1.5ZM689.55,162.5v1.5h1.5v-1.5h-1.5ZM599,162.5v1.5h1.5v-1.5h-1.5ZM513.55,162.5v1.5h1.5v-1.5h-1.5ZM423,162.5v1.5h1.5v-1.5h-1.5ZM337.55,162.5v1.5h1.5v-1.5h-1.5ZM247,162.5v1.5h1.5v-1.5h-1.5ZM161.55,162.5v1.5h1.5v-1.5h-1.5ZM71,162.5v1.5h1.5v-1.5h-1.5ZM-72-134.5v3h1644v-3H-72ZM69.5,162.5v1.5h3v-1.5h-3ZM161.55,162.5v1.5h2.95v-1.5h-2.95ZM245.5,162.5v1.5h3v-1.5h-3ZM337.55,162.5v1.5h2.95v-1.5h-2.95ZM421.5,162.5v1.5h3v-1.5h-3ZM513.55,162.5v1.5h2.95v-1.5h-2.95ZM597.5,162.5v1.5h3v-1.5h-3ZM689.55,162.5v1.5h2.95v-1.5h-2.95ZM773.5,162.5v1.5h3v-1.5h-3ZM865.5,162.5v1.5h3v-1.5h-3ZM949.5,162.5v1.5h3v-1.5h-3ZM1041.5,162.5v1.5h3v-1.5h-3ZM1125.5,162.5v1.5h3v-1.5h-3ZM1217.5,162.5v1.5h3v-1.5h-3ZM1301.5,162.5v1.5h3v-1.5h-3ZM1393.55,162.5v1.5h2.95v-1.5h-2.95ZM71,162.5v1.5h1.5v-1.5h-1.5ZM161.55,162.5v1.5h1.45v-1.5h-1.45ZM247,162.5v1.5h1.5v-1.5h-1.5ZM337.55,162.5v1.5h1.5v-1.5h-1.5ZM423,162.5v1.5h1.5v-1.5h-1.5ZM513.55,162.5v1.5h1.5v-1.5h-1.5ZM599,162.5v1.5h1.5v-1.5h-1.5ZM689.55,162.5v1.5h1.5v-1.5h-1.5ZM775,162.5v1.5h1.5v-1.5h-1.5ZM865.5,162.5v1.5h1.5v-1.5h-1.5ZM951,162.5v1.5h1.5v-1.5h-1.5ZM1041.5,162.5v1.5h1.5v-1.5h-1.5ZM1127,162.5v1.5h1.5v-1.5h-1.5ZM1217.5,162.5v1.5h1.5v-1.5h-1.5ZM1303,162.5v1.5h1.5v-1.5h-1.5ZM1393.55,162.5v1.5h1.5v-1.5h-1.5ZM71,162.5v1.5h1.5v-1.5h-1.5ZM161.55,162.5v1.5h1.45v-1.5h-1.45ZM247,162.5v1.5h1.5v-1.5h-1.5ZM337.55,162.5v1.5h1.45v-1.5h-1.45ZM423,162.5v1.5h1.5v-1.5h-1.5ZM513.55,162.5v1.5h1.45v-1.5h-1.45ZM599,162.5v1.5h1.5v-1.5h-1.5ZM689.55,162.5v1.5h1.5v-1.5h-1.5ZM775,162.5v1.5h1.5v-1.5h-1.5ZM865.5,162.5v1.5h1.5v-1.5h-1.5ZM951,162.5v1.5h1.5v-1.5h-1.5ZM1041.5,162.5v1.5h1.5v-1.5h-1.5ZM1127,162.5v1.5h1.5v-1.5h-1.5ZM1217.5,162.5v1.5h1.5v-1.5h-1.5ZM1303,162.5v1.5h1.5v-1.5h-1.5ZM1393.55,162.5v1.5h1.5v-1.5h-1.5ZM71,162.5v1.5h1.5v-1.5h-1.5ZM161.55,162.5v1.5h1.45v-1.5h-1.45ZM247,162.5v1.5h1.5v-1.5h-1.5ZM337.55,162.5v1.5h1.45v-1.5h-1.45ZM423,162.5v1.5h1.5v-1.5h-1.5ZM513.55,162.5v1.5h1.45v-1.5h-1.45ZM599,162.5v1.5h1.5v-1.5h-1.5ZM689.55,162.5v1.5h1.45v-1.5h-1.45ZM775,162.5v1.5h1.5v-1.5h-1.5ZM865.5,162.5v1.5h1.5v-1.5h-1.5ZM951,162.5v1.5h1.5v-1.5h-1.5ZM1041.5,162.5v1.5h1.5v-1.5h-1.5ZM1127,162.5v1.5h1.5v-1.5h-1.5ZM1217.5,162.5v1.5h1.5v-1.5h-1.5ZM1303,162.5v1.5h1.5v-1.5h-1.5ZM1393.55,162.5v1.5h1.5v-1.5h-1.5ZM71,162.5v1.5h1.5v-1.5h-1.5ZM161.55,162.5v1.5h1.45v-1.5h-1.45ZM247,162.5v1.5h1.5v-1.5h-1.5ZM337.55,162.5v1.5h1.45v-1.5h-1.45ZM423,162.5v1.5h1.5v-1.5h-1.5ZM513.55,162.5v1.5h1.45v-1.5h-1.45ZM599,162.5v1.5h1.5v-1.5h-1.5ZM689.55,162.5v1.5h1.45v-1.5h-1.45ZM775,162.5v1.5h1.5v-1.5h-1.5ZM865.5,162.5v1.5h1.5v-1.5h-1.5ZM951,162.5v1.5h1.5v-1.5h-1.5ZM1041.5,162.5v1.5h1.5v-1.5h-1.5ZM1127,162.5v1.5h1.5v-1.5h-1.5ZM1217.5,162.5v1.5h1.5v-1.5h-1.5ZM1303,162.5v1.5h1.5v-1.5h-1.5ZM1393.55,162.5v1.5h1.5v-1.5h-1.5ZM1570.5-133V114h3v-247h-3ZM1393.55,164h1.45v-1.5h-1.45v1.5ZM1303,164h1.5v-1.5h-1.5v1.5ZM1217.5,164h1.5v-1.5h-1.5v1.5ZM1127,164h1.5v-1.5h-1.5v1.5ZM1041.5,164h1.5v-1.5h-1.5v1.5ZM951,164h1.5v-1.5h-1.5v1.5ZM865.5,164h1.5v-1.5h-1.5v1.5ZM775,164h1.5v-1.5h-1.5v1.5ZM689.55,164h1.45v-1.5h-1.45v1.5ZM599,164h1.5v-1.5h-1.5v1.5ZM513.55,164h1.45v-1.5h-1.45v1.5ZM423,164h1.5v-1.5h-1.5v1.5ZM337.55,164h1.45v-1.5h-1.45v1.5ZM247,164h1.5v-1.5h-1.5v1.5ZM161.55,164h1.45v-1.5h-1.45v1.5ZM71,164h1.5v-1.5h-1.5v1.5ZM1393.55,162.5v1.5h1.5v-1.5h-1.5ZM1303,162.5v1.5h1.5v-1.5h-1.5ZM1217.5,162.5v1.5h1.5v-1.5h-1.5ZM1127,162.5v1.5h1.5v-1.5h-1.5ZM1041.5,162.5v1.5h1.5v-1.5h-1.5ZM951,162.5v1.5h1.5v-1.5h-1.5ZM865.5,162.5v1.5h1.5v-1.5h-1.5ZM775,162.5v1.5h1.5v-1.5h-1.5ZM689.55,162.5v1.5h1.45v-1.5h-1.45ZM599,162.5v1.5h1.5v-1.5h-1.5ZM513.55,162.5v1.5h1.45v-1.5h-1.45ZM423,162.5v1.5h1.5v-1.5h-1.5ZM337.55,162.5v1.5h1.45v-1.5h-1.45ZM247,162.5v1.5h1.5v-1.5h-1.5ZM161.55,162.5v1.5h1.45v-1.5h-1.45ZM71,162.5v1.5h1.5v-1.5h-1.5ZM1393.55,162.5v1.5h1.5v-1.5h-1.5ZM1303,162.5v1.5h1.5v-1.5h-1.5ZM1217.5,162.5v1.5h1.5v-1.5h-1.5ZM1127,162.5v1.5h1.5v-1.5h-1.5ZM1041.5,162.5v1.5h1.5v-1.5h-1.5ZM951,162.5v1.5h1.5v-1.5h-1.5ZM865.5,162.5v1.5h1.5v-1.5h-1.5ZM775,162.5v1.5h1.5v-1.5h-1.5ZM689.55,162.5v1.5h1.45v-1.5h-1.45ZM599,162.5v1.5h1.5v-1.5h-1.5ZM513.55,162.5v1.5h1.45v-1.5h-1.45ZM423,162.5v1.5h1.5v-1.5h-1.5ZM337.55,162.5v1.5h1.45v-1.5h-1.45ZM247,162.5v1.5h1.5v-1.5h-1.5ZM161.55,162.5v1.5h1.45v-1.5h-1.45ZM71,162.5v1.5h1.5v-1.5h-1.5ZM1393.55,162.5v1.5h1.5v-1.5h-1.5ZM1303,162.5v1.5h1.5v-1.5h-1.5ZM1217.5,162.5v1.5h1.5v-1.5h-1.5ZM1127,162.5v1.5h1.5v-1.5h-1.5ZM1041.5,162.5v1.5h1.5v-1.5h-1.5ZM951,162.5v1.5h1.5v-1.5h-1.5ZM865.5,162.5v1.5h1.5v-1.5h-1.5ZM775,162.5v1.5h1.5v-1.5h-1.5ZM689.55,162.5v1.5h1.5v-1.5h-1.5ZM599,162.5v1.5h1.5v-1.5h-1.5ZM513.55,162.5v1.5h1.5v-1.5h-1.5ZM423,162.5v1.5h1.5v-1.5h-1.5ZM337.55,162.5v1.5h1.45v-1.5h-1.45ZM247,162.5v1.5h1.5v-1.5h-1.5ZM161.55,162.5v1.5h1.45v-1.5h-1.45ZM71,162.5v1.5h1.5v-1.5h-1.5ZM1393.55,162.5v1.5h1.5v-1.5h-1.5ZM1303,162.5v1.5h1.5v-1.5h-1.5ZM1217.5,162.5v1.5h1.5v-1.5h-1.5ZM1127,162.5v1.5h1.5v-1.5h-1.5ZM1041.5,162.5v1.5h1.5v-1.5h-1.5ZM951,162.5v1.5h1.5v-1.5h-1.5ZM865.5,162.5v1.5h1.5v-1.5h-1.5ZM775,162.5v1.5h1.5v-1.5h-1.5ZM689.55,162.5v1.5h1.5v-1.5h-1.5ZM599,162.5v1.5h1.5v-1.5h-1.5ZM513.55,162.5v1.5h1.5v-1.5h-1.5ZM423,162.5v1.5h1.5v-1.5h-1.5ZM337.55,162.5v1.5h1.5v-1.5h-1.5ZM247,162.5v1.5h1.5v-1.5h-1.5ZM161.55,162.5v1.5h1.5v-1.5h-1.5ZM71,162.5v1.5h1.5v-1.5h-1.5ZM1570.5,114c0,26.79-21.71,48.5-48.5,48.5v3c28.44,0,51.5-23.06,51.5-51.5h-3ZM1396.5,164v-1.5h-1.45v3h1.5v-1.5h-.05ZM1477.5,162.5v3h44.5v-3h-44.5ZM1393.55,164v6.96h3v-6.96h-3ZM1393.55,170.96c0,24.59-19.94,44.52-44.53,44.52v3c26.25,0,47.53-21.27,47.53-47.52h-3ZM1304.5,170.96h-3c0,26.25,21.28,47.52,47.52,47.52v-3c-24.59,0-44.52-19.93-44.52-44.52ZM1301.5,164v6.96h3v-6.96h-3ZM1301.5,162.5v3h1.5v-3h-1.5ZM1219,162.5v3h1.5v-3h-1.5ZM1217.5,164v52h3v-52h-3ZM1217.5,216c0,24.58-19.92,44.5-44.5,44.5v3c26.23,0,47.5-21.27,47.5-47.5h-3ZM1128.5,216h-3c0,26.23,21.27,47.5,47.5,47.5v-3c-24.58,0-44.5-19.92-44.5-44.5ZM1125.5,164v52h3v-52h-3ZM1043,162.5v3h1.5v-3h-1.5ZM1125.5,162.5v3h1.5v-3h-1.5ZM1041.5,164v52h3v-52h-3ZM1041.5,216c0,24.58-19.92,44.5-44.5,44.5v3c26.23,0,47.5-21.27,47.5-47.5h-3ZM952.5,216h-3c0,26.23,21.27,47.5,47.5,47.5v-3c-24.58,0-44.5-19.92-44.5-44.5ZM949.5,164v52h3v-52h-3ZM949.5,162.5v3h1.5v-3h-1.5ZM867,162.5v3h1.5v-3h-1.5ZM865.5,164v89h3v-89h-3ZM865.5,253c0,24.58-19.92,44.5-44.5,44.5v3c26.23,0,47.5-21.27,47.5-47.5h-3ZM776.5,253h-3c0,26.23,21.27,47.5,47.5,47.5v-3c-24.58,0-44.5-19.92-44.5-44.5ZM773.5,164v89h3v-89h-3ZM692.5,164v-1.5h-1.45v3h1.5v-1.5h-.05ZM773.5,162.5v3h1.5v-3h-1.5ZM689.55,164v46.96h3v-46.96h-3ZM689.55,210.96c0,24.59-19.94,44.52-44.53,44.52v3c26.25,0,47.53-21.27,47.53-47.52h-3ZM600.5,210.96h-3c0,26.25,21.28,47.52,47.52,47.52v-3c-24.59,0-44.52-19.93-44.52-44.52ZM597.5,164v46.96h3v-46.96h-3ZM597.5,162.5v3h1.5v-3h-1.5ZM516.5,164v-1.5h-1.45v3h1.5v-1.5h-.05ZM513.55,164v6.96h3v-6.96h-3ZM513.55,170.96c0,24.59-19.94,44.52-44.53,44.52v3c26.25,0,47.53-21.27,47.53-47.52h-3ZM424.5,170.96h-3c0,26.25,21.28,47.52,47.52,47.52v-3c-24.59,0-44.52-19.93-44.52-44.52ZM421.5,164v6.96h3v-6.96h-3ZM340.5,164v-1.5h-1.45v3h1.5v-1.5h-.05ZM421.5,162.5v3h1.5v-3h-1.5ZM337.55,164v49.96h3v-49.96h-3ZM337.55,213.96c0,24.59-19.94,44.52-44.53,44.52v3c26.25,0,47.53-21.27,47.53-47.52h-3ZM248.5,213.96h-3c0,26.25,21.28,47.52,47.52,47.52v-3c-24.59,0-44.52-19.93-44.52-44.52ZM245.5,164v49.96h3v-49.96h-3ZM245.5,162.5v3h1.5v-3h-1.5ZM164.5,164v-1.5h-1.45v3h1.47c.02-.5.03-1,.03-1.5h-.05ZM161.55,164c0,.67-.02,1.34-.05,2.01-1.08,23.64-20.57,42.47-44.48,42.47v3c25.23,0,45.86-19.65,47.43-44.48.02-.28.04-.57.05-.86.01-.21.02-.43.02-.64.02-.5.03-1,.03-1.5h-3ZM72.5,164h-3c0,.5.01,1,.03,1.5,0,.5.03,1,.07,1.5,1.56,24.83,22.2,44.48,47.42,44.48v-3c-24.57,0-44.5-19.91-44.52-44.48ZM-22,162.5v3h10.5v-3h-10.5ZM69.5,162.5v3h1.5v-3h-1.5ZM-70.5,114h-3c0,28.44,23.06,51.5,51.5,51.5v-3c-26.79,0-48.5-21.71-48.5-48.5ZM-73.5-133V114h3v-247h-3Z"/>
    <path class="cls-1" d="M71,125v42h-1.5v-42c0-22.37-18.13-40.5-40.5-40.5-11.37,0-21.64,4.68-29,12.23-7.12,7.29-11.5,17.27-11.5,28.27v42h-1.5v-42c0-11.95,4.99-22.74,13-30.38,7.54-7.2,17.75-11.62,29-11.62,23.2,0,42,18.8,42,42Z"/>
    <path class="cls-3" d="M29,81.5c-11.14,0-21.3,4.19-29,11.08-8.9,7.96-14.5,19.54-14.5,32.42h3c0-11,4.38-20.98,11.5-28.27,7.36-7.55,17.63-12.23,29-12.23,22.37,0,40.5,18.13,40.5,40.5h3c0-24.02-19.48-43.5-43.5-43.5ZM0,92.58c-8.9,7.96-14.5,19.54-14.5,32.42v42h3v-42c0-11,4.38-20.98,11.5-28.27,7.36-7.55,17.63-12.23,29-12.23v-3c-11.14,0-21.3,4.19-29,11.08ZM69.53,165.5c-.02-.5-.03-1-.03-1.5v3h.1c-.04-.5-.06-1-.07-1.5ZM29,81.5v3c22.37,0,40.5,18.13,40.5,40.5v42h3v-42c0-24.02-19.48-43.5-43.5-43.5Z"/>
    <path class="cls-1" d="M247,125v42h-1.5v-42c0-22.37-18.13-40.5-40.5-40.5s-40.5,18.13-40.5,40.5v39h.05c0,.5-.01,1-.03,1.5,0,.21-.01.43-.02.64v.86h-1.5v-42c0-23.2,18.8-42,42-42s42,18.8,42,42Z"/>
    <path class="cls-3" d="M245.5,164v3h1.5v-3h-1.5ZM205,81.5c-24.02,0-43.5,19.48-43.5,43.5h3c0-22.37,18.13-40.5,40.5-40.5s40.5,18.13,40.5,40.5h3c0-24.02-19.48-43.5-43.5-43.5ZM161.5,125v42h3v-42c0-22.37,18.13-40.5,40.5-40.5v-3c-24.02,0-43.5,19.48-43.5,43.5ZM205,81.5v3c22.37,0,40.5,18.13,40.5,40.5v42h3v-42c0-24.02-19.48-43.5-43.5-43.5Z"/>
    <path class="cls-1" d="M423,146v21h-1.5v-21c0-22.37-18.13-40.5-40.5-40.5s-40.5,18.13-40.5,40.5v18h.05v3h-1.55v-21c0-23.2,18.8-42,42-42s42,18.8,42,42Z"/>
    <path class="cls-3" d="M421.5,164v3h1.5v-3h-1.5ZM381,102.5c-24.02,0-43.5,19.48-43.5,43.5h3c0-22.37,18.13-40.5,40.5-40.5s40.5,18.13,40.5,40.5h3c0-24.02-19.48-43.5-43.5-43.5ZM337.5,146v21h3v-21c0-22.37,18.13-40.5,40.5-40.5v-3c-24.02,0-43.5,19.48-43.5,43.5ZM381,102.5v3c22.37,0,40.5,18.13,40.5,40.5v21h3v-21c0-24.02-19.48-43.5-43.5-43.5Z"/>
    <path class="cls-1" d="M775,146v21h-1.5v-21c0-22.37-18.13-40.5-40.5-40.5s-40.5,18.13-40.5,40.5v18h.05v3h-1.55v-21c0-23.2,18.8-42,42-42s42,18.8,42,42Z"/>
    <path class="cls-3" d="M773.5,164v3h1.5v-3h-1.5ZM733,102.5c-24.02,0-43.5,19.48-43.5,43.5h3c0-22.37,18.13-40.5,40.5-40.5s40.5,18.13,40.5,40.5h3c0-24.02-19.48-43.5-43.5-43.5ZM689.5,146v21h3v-21c0-22.37,18.13-40.5,40.5-40.5v-3c-24.02,0-43.5,19.48-43.5,43.5ZM733,102.5v3c22.37,0,40.5,18.13,40.5,40.5v21h3v-21c0-24.02-19.48-43.5-43.5-43.5Z"/>
    <path class="cls-1" d="M951,146v21h-1.5v-21c0-22.37-18.13-40.5-40.5-40.5s-40.5,18.13-40.5,40.5v21h-1.5v-21c0-23.2,18.8-42,42-42s42,18.8,42,42Z"/>
    <path class="cls-3" d="M949.5,164v3h1.5v-3h-1.5ZM909,102.5c-24.02,0-43.5,19.48-43.5,43.5h3c0-22.37,18.13-40.5,40.5-40.5s40.5,18.13,40.5,40.5h3c0-24.02-19.48-43.5-43.5-43.5ZM865.5,146v21h3v-21c0-22.37,18.13-40.5,40.5-40.5v-3c-24.02,0-43.5,19.48-43.5,43.5ZM909,102.5v3c22.37,0,40.5,18.13,40.5,40.5v21h3v-21c0-24.02-19.48-43.5-43.5-43.5Z"/>
    <path class="cls-1" d="M1127,146v21h-1.5v-21c0-22.37-18.13-40.5-40.5-40.5s-40.5,18.13-40.5,40.5v21h-1.5v-21c0-23.2,18.8-42,42-42s42,18.8,42,42Z"/>
    <path class="cls-3" d="M1125.5,164v3h1.5v-3h-1.5ZM1085,102.5c-24.02,0-43.5,19.48-43.5,43.5h3c0-22.37,18.13-40.5,40.5-40.5s40.5,18.13,40.5,40.5h3c0-24.02-19.48-43.5-43.5-43.5ZM1041.5,146v21h3v-21c0-22.37,18.13-40.5,40.5-40.5v-3c-24.02,0-43.5,19.48-43.5,43.5ZM1085,102.5v3c22.37,0,40.5,18.13,40.5,40.5v21h3v-21c0-24.02-19.48-43.5-43.5-43.5Z"/>
    <path class="cls-1" d="M1303,146v21h-1.5v-21c0-22.37-18.13-40.5-40.5-40.5s-40.5,18.13-40.5,40.5v21h-1.5v-21c0-23.2,18.8-42,42-42s42,18.8,42,42Z"/>
    <path class="cls-3" d="M1301.5,164v3h1.5v-3h-1.5ZM1261,102.5c-24.02,0-43.5,19.48-43.5,43.5h3c0-22.37,18.13-40.5,40.5-40.5s40.5,18.13,40.5,40.5h3c0-24.02-19.48-43.5-43.5-43.5ZM1217.5,146v21h3v-21c0-22.37,18.13-40.5,40.5-40.5v-3c-24.02,0-43.5,19.48-43.5,43.5ZM1261,102.5v3c22.37,0,40.5,18.13,40.5,40.5v21h3v-21c0-24.02-19.48-43.5-43.5-43.5Z"/>
    <path class="cls-1" d="M1479,146v21h-1.5v-21c0-21.36-16.53-38.86-37.5-40.39-.99-.07-1.99-.11-3-.11-22.37,0-40.5,18.13-40.5,40.5v18h.05v3h-1.55v-21c0-23.2,18.8-42,42-42,1.01,0,2.01.04,3,.1,21.8,1.54,39,19.71,39,41.9Z"/>
    <path class="cls-3" d="M1440,102.61c-.99-.08-1.99-.11-3-.11-24.02,0-43.5,19.48-43.5,43.5h3c0-22.37,18.13-40.5,40.5-40.5,1.01,0,2.01.04,3,.11,20.97,1.53,37.5,19.03,37.5,40.39h3c0-23.01-17.88-41.86-40.5-43.39ZM1393.5,146v21h3v-21c0-22.37,18.13-40.5,40.5-40.5v-3c-24.02,0-43.5,19.48-43.5,43.5ZM1440,102.61c-.99-.08-1.99-.11-3-.11v3c1.01,0,2.01.04,3,.11,20.97,1.53,37.5,19.03,37.5,40.39v21h3v-21c0-23.01-17.88-41.86-40.5-43.39Z"/>
    <path class="cls-1" d="M599,110v57h-1.5v-57c0-22.37-18.13-40.5-40.5-40.5s-40.5,18.13-40.5,40.5v54h.05v3h-1.55v-57c0-23.2,18.8-42,42-42s42,18.8,42,42Z"/>
    <path class="cls-3" d="M597.5,164v3h1.5v-3h-1.5ZM557,66.5c-24.02,0-43.5,19.48-43.5,43.5h3c0-22.37,18.13-40.5,40.5-40.5s40.5,18.13,40.5,40.5h3c0-24.02-19.48-43.5-43.5-43.5ZM513.5,110v57h3v-57c0-22.37,18.13-40.5,40.5-40.5v-3c-24.02,0-43.5,19.48-43.5,43.5ZM557,66.5v3c22.37,0,40.5,18.13,40.5,40.5v57h3v-57c0-24.02-19.48-43.5-43.5-43.5Z"/>
  </g>
</svg>