<svg width="1440" height="730" viewBox="0 0 1440 730" fill="none" xmlns="http://www.w3.org/2000/svg">
<g clip-path="url(#clip0_300_758)">
<path d="M1067.5 296.5C1036.71 290.531 984.08 221.351 1000 135.5" stroke="#C1BEBE" stroke-width="3"/>
<path fill-rule="evenodd" clip-rule="evenodd" d="M983.446 324.983C995.857 262.282 1033.07 212.813 1055 200.373C1082.41 184.823 1129.79 139.089 1145.82 109.995C1148.55 105.047 1151.38 99.1495 1154.44 92.769C1169.39 61.6356 1189.86 19 1230.63 19C1260.17 19 1292.11 34.5283 1313 94.873C1322.31 121.757 1325.3 170.99 1265.5 189.873C1206.19 208.602 1143.91 208.445 1118.3 208.38C1116.93 208.376 1115.66 208.373 1114.5 208.373C1099.78 208.373 1094.05 219.282 1084.57 237.323C1079.56 246.864 1073.49 258.401 1064.5 271.373C1033.28 316.409 959.142 528.335 995.857 593.043C1032.57 657.751 1182.14 627.565 1253.9 611.806C1281.95 605.645 1315.69 595.219 1349.59 584.746C1380.69 575.137 1411.92 565.489 1439 559.057C1468.93 551.949 1493.79 548.769 1507.8 553.917C1507.8 553.917 1637.3 1332.07 1570 1320.61V6913.87C1570 6941.49 1547.61 6963.87 1520 6963.87H-24C-51.6142 6963.87 -74 6941.49 -74 6913.87V1672.45C-91.7789 1690.66 -107.03 1713.5 -119.041 1743.12C-331.575 2267.31 -92.1511 610.301 -92.1511 610.301C-104.543 557.733 -73.7808 572.184 -21.1124 596.925C-15.9457 599.352 -10.5682 601.878 -5 604.45C55.8392 632.548 139.45 666.075 219.669 635.178C367.452 578.258 470.671 597.101 556.862 612.834C593.721 619.563 627.466 625.723 660.25 625.146C849.5 625.146 937.624 592.532 983.446 324.983Z" fill="#FBF4F5"/>
<path d="M1055 200.373L1054.26 199.068L1054.26 199.068L1055 200.373ZM983.446 324.983L981.975 324.692L981.971 324.711L981.968 324.73L983.446 324.983ZM1145.82 109.995L1144.51 109.271L1144.51 109.271L1145.82 109.995ZM1154.44 92.769L1153.09 92.1198L1153.09 92.1199L1154.44 92.769ZM1230.63 19L1230.63 17.5L1230.63 19ZM1313 94.873L1311.58 95.3638L1311.58 95.3638L1313 94.873ZM1265.5 189.873L1265.95 191.303L1265.95 191.303L1265.5 189.873ZM1118.3 208.38L1118.3 209.88L1118.3 209.88L1118.3 208.38ZM1084.57 237.323L1083.24 236.625L1083.24 236.625L1084.57 237.323ZM1064.5 271.373L1063.27 270.518L1063.27 270.518L1064.5 271.373ZM1253.9 611.806L1254.22 613.271L1254.22 613.271L1253.9 611.806ZM1349.59 584.746L1349.15 583.313L1349.15 583.313L1349.59 584.746ZM1439 559.057L1438.65 557.598L1438.65 557.598L1439 559.057ZM1507.8 553.917L1509.28 553.671L1509.14 552.81L1508.32 552.509L1507.8 553.917ZM1570 1320.61L1570.25 1319.13L1568.5 1318.83V1320.61H1570ZM-74 1672.45H-72.5V1668.77L-75.0732 1671.4L-74 1672.45ZM-119.041 1743.12L-120.431 1742.56L-120.431 1742.56L-119.041 1743.12ZM-92.1511 610.301L-90.6665 610.515L-90.6258 610.234L-90.6911 609.957L-92.1511 610.301ZM-21.1124 596.925L-20.4746 595.568L-20.4746 595.568L-21.1124 596.925ZM-5 604.45L-4.37108 603.088L-4.37108 603.088L-5 604.45ZM219.669 635.178L220.208 636.578L220.208 636.578L219.669 635.178ZM556.862 612.834L556.592 614.31L556.592 614.31L556.862 612.834ZM660.25 625.146V623.646H660.237L660.223 623.646L660.25 625.146ZM1054.26 199.068C1042.98 205.468 1028.03 221.189 1014.38 243.035C1000.7 264.93 988.22 293.142 981.975 324.692L984.918 325.275C991.083 294.124 1003.42 266.25 1016.93 244.625C1030.47 222.951 1045.09 207.718 1055.74 201.678L1054.26 199.068ZM1144.51 109.271C1136.6 123.627 1120.87 142.213 1103.62 159.194C1086.39 176.171 1067.8 191.388 1054.26 199.068L1055.74 201.678C1069.61 193.808 1088.42 178.383 1105.73 161.332C1123.04 144.285 1139.01 125.457 1147.13 110.719L1144.51 109.271ZM1153.09 92.1199C1150.02 98.5115 1147.21 104.367 1144.51 109.271L1147.13 110.719C1149.88 105.726 1152.74 99.7876 1155.79 93.4182L1153.09 92.1199ZM1230.63 17.5C1209.64 17.5 1193.94 28.501 1181.7 43.2512C1169.47 57.9688 1160.55 76.5852 1153.09 92.1198L1155.79 93.4182C1163.28 77.8194 1172.06 59.5513 1184 45.1677C1195.92 30.8168 1210.85 20.5 1230.63 20.5L1230.63 17.5ZM1314.42 94.3822C1303.91 64.0336 1290.57 44.7899 1275.99 33.1357C1261.4 21.4639 1245.68 17.5 1230.63 17.5L1230.63 20.5C1245.12 20.5 1260.14 24.3003 1274.12 35.4788C1288.12 46.6749 1301.2 65.3677 1311.58 95.3638L1314.42 94.3822ZM1265.95 191.303C1296.27 181.729 1310.87 164.362 1316.6 145.816C1322.29 127.375 1319.13 107.999 1314.42 94.3822L1311.58 95.3638C1316.18 108.63 1319.17 127.313 1313.73 144.931C1308.33 162.443 1294.53 179.134 1265.05 188.443L1265.95 191.303ZM1118.3 209.88C1143.9 209.945 1206.39 210.11 1265.95 191.303L1265.05 188.443C1205.98 207.094 1143.91 206.945 1118.31 206.88L1118.3 209.88ZM1114.5 209.873C1115.66 209.873 1116.92 209.876 1118.3 209.88L1118.31 206.88C1116.93 206.876 1115.66 206.873 1114.5 206.873V209.873ZM1085.9 238.02C1090.67 228.938 1094.38 221.896 1098.69 217.083C1102.9 212.382 1107.62 209.873 1114.5 209.873V206.873C1106.67 206.873 1101.16 209.818 1096.45 215.082C1091.84 220.234 1087.95 227.666 1083.24 236.625L1085.9 238.02ZM1065.73 272.228C1074.78 259.173 1080.88 247.564 1085.9 238.02L1083.24 236.625C1078.23 246.164 1072.2 257.628 1063.27 270.518L1065.73 272.228ZM997.162 592.302C988.218 576.54 985.927 551.553 988.198 521.931C990.463 492.385 997.24 458.518 1006.15 425.219C1015.06 391.927 1026.09 359.246 1036.83 332.086C1047.59 304.889 1058.03 283.336 1065.73 272.228L1063.27 270.518C1055.36 281.928 1044.82 303.754 1034.04 330.982C1023.26 358.246 1012.19 391.036 1003.25 424.443C994.315 457.843 987.491 491.905 985.207 521.702C982.928 551.422 985.139 577.192 994.552 593.783L997.162 592.302ZM1253.57 610.341C1217.69 618.221 1162.49 629.677 1111.69 631.1C1086.3 631.812 1062.09 630.011 1042 624.051C1021.91 618.093 1006.08 608.025 997.162 592.302L994.552 593.783C1003.99 610.414 1020.62 620.839 1041.15 626.927C1061.67 633.014 1086.23 634.815 1111.78 634.099C1162.89 632.667 1218.34 621.15 1254.22 613.271L1253.57 610.341ZM1349.15 583.313C1315.23 593.792 1281.55 604.197 1253.57 610.341L1254.22 613.271C1282.34 607.094 1316.15 596.647 1350.03 586.179L1349.15 583.313ZM1438.65 557.598C1411.52 564.043 1380.24 573.708 1349.15 583.313L1350.03 586.179C1381.15 576.566 1412.33 566.934 1439.35 560.517L1438.65 557.598ZM1508.32 552.509C1501 549.819 1491.01 549.351 1479.24 550.397C1467.43 551.446 1453.65 554.036 1438.65 557.598L1439.35 560.517C1454.28 556.97 1467.9 554.416 1479.5 553.385C1491.14 552.351 1500.59 552.867 1507.28 555.325L1508.32 552.509ZM1569.75 1322.09C1572.23 1322.51 1574.52 1322.01 1576.57 1320.67C1578.57 1319.35 1580.27 1317.26 1581.71 1314.6C1584.59 1309.29 1586.68 1301.31 1588.13 1291.17C1591.05 1270.85 1591.51 1241.28 1590.17 1205.59C1587.49 1134.18 1577.61 1037.94 1565.63 941.376C1553.64 844.805 1539.56 747.879 1528.47 675.098C1522.92 638.707 1518.12 608.352 1514.71 587.093C1513.01 576.464 1511.65 568.109 1510.72 562.411C1510.25 559.562 1509.89 557.377 1509.65 555.904C1509.53 555.168 1509.44 554.61 1509.37 554.235C1509.34 554.048 1509.32 553.907 1509.3 553.813C1509.3 553.766 1509.29 553.73 1509.29 553.706C1509.28 553.694 1509.28 553.685 1509.28 553.68C1509.28 553.674 1509.28 553.671 1507.8 553.917C1506.32 554.163 1506.32 554.166 1506.32 554.172C1506.32 554.178 1506.32 554.186 1506.33 554.198C1506.33 554.222 1506.34 554.257 1506.34 554.304C1506.36 554.398 1506.38 554.539 1506.41 554.726C1506.48 555.1 1506.57 555.657 1506.69 556.393C1506.93 557.864 1507.29 560.048 1507.76 562.895C1508.69 568.59 1510.05 576.942 1511.75 587.568C1515.16 608.82 1519.96 639.168 1525.5 675.55C1536.59 748.316 1550.67 845.212 1562.65 941.746C1574.63 1038.29 1584.5 1134.43 1587.17 1205.7C1588.51 1241.36 1588.04 1270.7 1585.16 1290.74C1583.72 1300.78 1581.69 1308.34 1579.07 1313.17C1577.77 1315.58 1576.37 1317.21 1574.92 1318.16C1573.51 1319.09 1571.98 1319.42 1570.25 1319.13L1569.75 1322.09ZM1568.5 1320.61V6913.87H1571.5V1320.61H1568.5ZM1568.5 6913.87C1568.5 6940.66 1546.79 6962.37 1520 6962.37V6965.37C1548.44 6965.37 1571.5 6942.32 1571.5 6913.87H1568.5ZM1520 6962.37H-24V6965.37H1520V6962.37ZM-24 6962.37C-50.7858 6962.37 -72.5 6940.66 -72.5 6913.87H-75.5C-75.5 6942.32 -52.4427 6965.37 -24 6965.37V6962.37ZM-72.5 6913.87V1672.45H-75.5V6913.87H-72.5ZM-117.651 1743.68C-105.708 1714.23 -90.5603 1691.56 -72.9268 1673.5L-75.0732 1671.4C-92.9975 1689.76 -108.352 1712.77 -120.431 1742.56L-117.651 1743.68ZM-92.1511 610.301C-93.6357 610.086 -93.6366 610.093 -93.6384 610.105C-93.6403 610.118 -93.643 610.137 -93.6466 610.162C-93.6539 610.213 -93.6648 610.288 -93.6793 610.388C-93.7082 610.589 -93.7514 610.889 -93.8085 611.286C-93.9229 612.081 -94.093 613.266 -94.3163 614.826C-94.7629 617.945 -95.4223 622.566 -96.2732 628.571C-97.9751 640.581 -100.444 658.127 -103.51 680.271C-109.642 724.559 -118.165 787.242 -127.728 860.824C-146.854 1007.99 -170.143 1198.75 -186.79 1373.14C-203.431 1547.47 -213.453 1705.6 -205.996 1787.39C-204.133 1807.83 -201.168 1823.66 -196.862 1833.81C-194.713 1838.88 -192.158 1842.71 -189.08 1844.93C-185.909 1847.23 -182.3 1847.73 -178.408 1846.36C-174.615 1845.02 -170.608 1841.93 -166.354 1837.2C-162.081 1832.45 -157.463 1825.93 -152.475 1817.55C-142.497 1800.8 -130.946 1776.47 -117.651 1743.68L-120.431 1742.56C-133.703 1775.29 -145.188 1799.45 -155.052 1816.01C-159.985 1824.3 -164.49 1830.64 -168.585 1835.2C-172.697 1839.77 -176.3 1842.44 -179.404 1843.53C-182.409 1844.59 -184.983 1844.19 -187.323 1842.5C-189.756 1840.74 -192.041 1837.5 -194.101 1832.64C-198.214 1822.94 -201.151 1807.5 -203.009 1787.12C-210.435 1705.66 -200.451 1547.82 -183.803 1373.42C-167.161 1199.08 -143.877 1008.36 -124.753 861.211C-115.191 787.639 -106.669 724.964 -100.538 680.682C-97.4723 658.541 -95.0044 640.999 -93.3029 628.992C-92.4521 622.989 -91.793 618.369 -91.3466 615.251C-91.1234 613.691 -90.9533 612.507 -90.8391 611.713C-90.782 611.316 -90.7388 611.017 -90.71 610.816C-90.6955 610.716 -90.6846 610.641 -90.6774 610.591C-90.6738 610.566 -90.671 610.547 -90.6692 610.534C-90.6674 610.522 -90.6665 610.515 -92.1511 610.301ZM-20.4746 595.568C-33.6282 589.388 -45.4719 583.824 -55.6203 579.791C-65.7282 575.774 -74.3496 573.192 -81.0136 573.122C-84.3709 573.086 -87.3465 573.685 -89.7837 575.16C-92.2477 576.652 -94.0228 578.956 -95.1025 582.062C-97.2187 588.15 -96.7158 597.474 -93.6111 610.645L-90.6911 609.957C-93.7824 596.843 -94.0812 588.261 -92.2689 583.047C-91.3843 580.502 -90.0126 578.806 -88.2302 577.727C-86.4209 576.632 -84.0505 576.09 -81.0453 576.122C-74.9841 576.186 -66.8141 578.57 -56.7283 582.579C-46.683 586.571 -34.9308 592.091 -21.7501 598.283L-20.4746 595.568ZM-4.37108 603.088C-9.93418 600.519 -15.3073 597.995 -20.4746 595.568L-21.7501 598.283C-16.5841 600.71 -11.2023 603.238 -5.62892 605.812L-4.37108 603.088ZM219.13 633.778C139.567 664.422 56.5088 631.205 -4.37108 603.088L-5.62892 605.812C55.1696 633.891 139.333 667.727 220.208 636.578L219.13 633.778ZM557.131 611.359C470.871 595.612 367.311 576.705 219.13 633.778L220.208 636.578C367.593 579.811 470.472 598.589 556.592 614.31L557.131 611.359ZM660.223 623.646C627.616 624.22 594.024 618.093 557.131 611.359L556.592 614.31C593.418 621.032 627.315 627.226 660.276 626.646L660.223 623.646ZM981.968 324.73C959.068 458.439 925.654 532.997 874.69 574.229C823.726 615.461 754.885 623.646 660.25 623.646V626.646C754.865 626.646 824.711 618.523 876.577 576.561C928.443 534.599 962.002 459.076 984.925 325.237L981.968 324.73Z" fill="#DD5868"/>
<path d="M998.5 136.5L998.33 135.01L998.41 137.997L998.5 136.5ZM1066.29 297.469L1064.84 297.058L1067.57 298.236L1066.29 297.469ZM1032.78 132.581L1032.95 134.071L1035.52 133.778L1033.99 131.696L1032.78 132.581ZM1043.09 58.218L1042.29 56.949L1042.29 56.949L1043.09 58.218ZM1124.5 55.4999L1123.22 56.2816L1123.22 56.2816L1124.5 55.4999ZM1127.23 60.722L1125.85 61.3092L1126.65 63.1952L1128.21 61.8601L1127.23 60.722ZM1219.43 10.5235L1219.14 9.05152L1219.43 10.5235ZM1308.14 184.944L1307.14 183.827L1307.14 183.827L1308.14 184.944ZM1137.85 222.506L1137.73 221.011L1137.73 221.011L1137.85 222.506ZM1109.5 224.855L1109.36 223.361L1108.6 223.43L1108.21 224.088L1109.5 224.855ZM1065.8 68.3155L1066.54 69.6203L1066.54 69.6203L1065.8 68.3155ZM1113.12 73.5139L1114.16 74.5978L1114.96 73.8294L1114.46 72.8374L1113.12 73.5139ZM1055.51 129.984L1054.31 130.89L1054.83 131.571L1055.68 131.474L1055.51 129.984ZM1067.82 128.576L1067.99 130.066L1068.81 129.972L1069.17 129.225L1067.82 128.576ZM998.41 137.997C1009.79 138.679 1020.72 145.043 1030.49 155.381C1040.26 165.712 1048.78 179.901 1055.3 195.943C1068.37 228.062 1073.33 267.238 1064.84 297.058L1067.73 297.88C1076.45 267.231 1071.32 227.348 1058.08 194.812C1051.45 178.527 1042.77 163.99 1032.67 153.32C1022.59 142.658 1011 135.746 998.59 135.003L998.41 137.997ZM1032.61 131.091L998.33 135.01L998.67 137.99L1032.95 134.071L1032.61 131.091ZM1042.29 56.949C1024.25 68.3199 1017.51 82.1083 1017.43 95.8761C1017.35 109.515 1023.81 122.85 1031.57 133.467L1033.99 131.696C1026.41 121.328 1020.35 108.621 1020.43 95.8935C1020.5 83.2954 1026.58 70.3943 1043.89 59.4871L1042.29 56.949ZM1125.78 54.7182C1121.85 48.2797 1117.36 43.4102 1112.1 40.2143C1106.83 37.009 1100.86 35.5419 1094.07 35.7749C1080.58 36.2375 1063.78 43.4091 1042.29 56.949L1043.89 59.4871C1065.31 45.9877 1081.53 39.2066 1094.17 38.7731C1100.44 38.558 1105.82 39.907 1110.55 42.7782C1115.29 45.6589 1119.46 50.1264 1123.22 56.2816L1125.78 54.7182ZM1128.61 60.1348C1127.89 58.4503 1126.96 56.6473 1125.78 54.7182L1123.22 56.2816C1124.33 58.105 1125.2 59.778 1125.85 61.3092L1128.61 60.1348ZM1219.14 9.05152C1185.83 15.5761 1152.96 36.6514 1126.25 59.5839L1128.21 61.8601C1154.76 39.065 1187.16 18.3743 1219.72 11.9956L1219.14 9.05152ZM1309.14 186.061C1341.27 157.249 1341.04 108.479 1321.92 69.4293C1302.78 30.3549 1264.34 0.196464 1219.14 9.05152L1219.72 11.9956C1263.09 3.4993 1300.43 32.367 1319.22 70.7487C1338.03 109.155 1337.87 156.271 1307.14 183.827L1309.14 186.061ZM1137.97 224.002C1168.62 221.577 1203.9 218.787 1235.21 213.291C1250.86 210.542 1265.56 207.11 1278.22 202.693C1290.87 198.282 1301.57 192.854 1309.14 186.061L1307.14 183.827C1299.98 190.245 1289.7 195.511 1277.23 199.861C1264.78 204.205 1250.25 207.603 1234.69 210.336C1203.55 215.803 1168.41 218.584 1137.73 221.011L1137.97 224.002ZM1109.64 226.349C1118.39 225.551 1127.93 224.796 1137.97 224.002L1137.73 221.011C1127.7 221.805 1118.14 222.561 1109.36 223.361L1109.64 226.349ZM1067.57 298.236L1110.79 225.622L1108.21 224.088L1065 296.702L1067.57 298.236ZM1066.54 69.6203C1080.57 61.6641 1090.5 60.1934 1097.51 61.8977C1104.47 63.591 1108.91 68.5091 1111.79 74.1904L1114.46 72.8374C1111.35 66.6824 1106.32 60.9534 1098.22 58.9826C1090.16 57.0229 1079.42 58.8711 1065.06 67.0106L1066.54 69.6203ZM1056.7 129.077C1051.07 121.65 1044.77 111.73 1044.21 101.254C1043.93 96.0654 1045.07 90.714 1048.45 85.4043C1051.85 80.076 1057.55 74.716 1066.54 69.6203L1065.06 67.0106C1055.77 72.2759 1049.65 77.9428 1045.92 83.7924C1042.18 89.6605 1040.91 95.6379 1041.21 101.414C1041.82 112.867 1048.65 123.42 1054.31 130.89L1056.7 129.077ZM1067.65 127.086L1055.34 128.493L1055.68 131.474L1067.99 130.066L1067.65 127.086ZM1112.09 72.43C1088.62 94.8774 1071.65 117.131 1066.47 127.927L1069.17 129.225C1074.12 118.913 1090.79 96.9564 1114.16 74.5978L1112.09 72.43Z" fill="#C1BEBE"/>
<g clip-path="url(#clip1_300_758)">
<path d="M1257.91 106.941C1258.9 107.878 1259.42 109.164 1259.4 110.472C1259.39 111.125 1259.24 111.784 1258.95 112.407L1243.3 150.817L1257.54 159.614C1258.86 160.433 1259.4 162.075 1258.81 163.52L1256.63 168.882C1255.92 170.65 1253.82 171.441 1252.11 170.589L1238.1 163.591L1232.18 178.101C1231.46 179.868 1229.37 180.656 1227.66 179.801L1222.49 177.209C1221.09 176.511 1220.41 174.923 1220.87 173.434L1225.75 157.43L1188.64 138.905C1188.41 138.801 1188.18 138.679 1187.97 138.543C1186.5 137.589 1185.65 135.893 1185.82 134.109L1187.49 116.499C1187.66 114.648 1188.89 113.049 1190.66 112.385L1218.1 102.04L1224.91 120.086L1205.44 127.421L1230.24 142.745L1238.75 114.867L1224.91 120.086L1218.1 102.04L1239.94 93.8112C1241.7 93.147 1243.68 93.5356 1245.03 94.8099L1257.91 106.941Z" fill="#3992E0"/>
</g>
<g clip-path="url(#clip2_300_758)">
<path d="M1122.64 149.44C1121.54 149.817 1120.55 150.449 1119.67 151.253C1119.1 151.749 1118.6 152.187 1118.2 152.572C1117.75 152.932 1117.46 153.221 1117.32 153.376L1123.73 160.736C1124.06 160.491 1124.36 160.265 1124.63 160.036L1125.79 159.025C1126.64 158.281 1127.38 157.406 1127.96 156.437C1128.49 155.629 1128.74 154.679 1128.75 153.711C1128.73 152.763 1128.3 151.828 1127.46 150.864C1126.89 150.166 1126.13 149.639 1125.26 149.353C1124.39 149.108 1123.49 149.127 1122.64 149.44ZM1128.84 112.765L1094.88 142.336C1089.73 146.819 1089.2 154.606 1093.68 159.754L1122.1 192.391C1126.59 197.539 1134.37 198.076 1139.52 193.593L1173.48 164.023C1178.62 159.539 1179.16 151.753 1174.68 146.605L1146.25 113.967C1141.77 108.819 1133.98 108.282 1128.84 112.765ZM1134.87 152.386C1135.07 154.374 1134.64 156.362 1133.67 158.128C1132.66 159.973 1131.19 161.601 1129.39 163.165C1128.87 163.623 1128.52 163.928 1128.28 164.097C1128.04 164.266 1127.73 164.533 1127.32 164.896L1133.44 171.925C1133.6 172.059 1133.6 172.288 1133.47 172.444L1129.22 176.145C1129.04 176.298 1128.88 176.284 1128.71 176.087L1109.08 153.548C1108.94 153.395 1108.93 153.25 1109.09 153.116C1109.46 152.792 1109.81 152.487 1110.29 152.026C1110.8 151.546 1111.35 151.069 1111.92 150.532C1112.49 149.995 1113.13 149.442 1113.79 148.829C1114.45 148.215 1115.11 147.643 1115.76 147.071C1117.56 145.506 1119.24 144.428 1120.87 143.82C1122.29 143.238 1123.83 142.974 1125.37 143.06C1126.68 143.15 1127.97 143.528 1129.14 144.164C1130.27 144.8 1131.26 145.589 1132.12 146.575C1133.76 148.457 1134.68 150.394 1134.87 152.386ZM1157.83 147.379C1157.98 148.79 1157.71 150.212 1157.07 151.468C1156.4 152.86 1155.29 154.244 1153.71 155.619C1152.71 156.495 1151.64 157.27 1150.49 157.929C1149.61 158.463 1148.63 158.892 1147.64 159.174C1147.42 159.222 1147.17 159.166 1147.04 158.972L1143.72 155.16C1143.67 155.097 1143.61 154.986 1143.64 154.885C1143.66 154.786 1143.75 154.749 1143.85 154.735C1145.15 154.495 1146.35 154.066 1147.51 153.443C1148.53 152.939 1149.5 152.285 1150.38 151.52C1151.21 150.795 1151.7 150.169 1151.93 149.628C1152.14 149.17 1152.06 148.587 1151.72 148.193C1151.45 147.884 1151.03 147.754 1150.43 147.775C1149.83 147.797 1148.82 148.096 1147.38 148.611C1145.92 149.189 1144.44 149.558 1142.9 149.745C1141.8 149.852 1140.68 149.713 1139.61 149.334C1138.65 148.937 1137.81 148.323 1137.16 147.535C1136.34 146.593 1135.82 145.466 1135.6 144.233C1135.39 142.88 1135.59 141.475 1136.15 140.217C1136.72 138.799 1137.8 137.432 1139.35 136.078C1140.25 135.295 1141.23 134.56 1142.24 133.909C1142.98 133.424 1143.76 133.046 1144.57 132.772C1144.67 132.72 1144.84 132.729 1144.96 132.779C1145.05 132.847 1145.15 132.916 1145.23 133.003L1148.34 136.574C1148.41 136.662 1148.45 136.787 1148.42 136.888C1148.26 137.104 1148.15 137.199 1148.03 137.232C1147.06 137.454 1146.15 137.823 1145.27 138.318C1144.31 138.849 1143.4 139.445 1142.57 140.17C1142.12 140.53 1141.71 140.996 1141.39 141.47C1141.16 141.782 1141.05 142.147 1141.09 142.5C1141.14 142.77 1141.26 143.047 1141.43 143.244C1141.6 143.441 1141.86 143.562 1142.15 143.621C1142.56 143.69 1142.99 143.66 1143.41 143.564C1144.14 143.39 1144.88 143.171 1145.59 142.934C1147.12 142.296 1148.74 141.852 1150.36 141.593C1151.48 141.421 1152.61 141.522 1153.67 141.906C1154.63 142.297 1155.48 142.916 1156.14 143.721C1157.06 144.732 1157.65 146.027 1157.83 147.379Z" fill="#2B4687"/>
</g>
</g>
<defs>
<clipPath id="clip0_300_758">
<rect width="1440" height="730" fill="white"/>
</clipPath>
<clipPath id="clip1_300_758">
<rect width="95" height="96" fill="white" transform="translate(1202.5 196.752) rotate(-110.651)"/>
</clipPath>
<clipPath id="clip2_300_758">
<rect width="69.7168" height="69.7168" fill="white" transform="translate(1085 149.786) rotate(-41.0524)"/>
</clipPath>
</defs>
</svg>
